<svg width="167" height="212" viewBox="0 0 167 212" fill="none" xmlns="http://www.w3.org/2000/svg">
<rect x="57.8804" y="69.7827" width="59.0731" height="121.933" fill="url(#paint0_linear_105_2686)"/>
<rect x="67.2939" y="82.6074" width="5.08436" height="9.54778" fill="url(#paint1_linear_105_2686)"/>
<rect x="80.104" y="82.6074" width="5.08436" height="9.54778" fill="url(#paint2_linear_105_2686)"/>
<rect x="92.9141" y="82.6074" width="5.08436" height="9.54778" fill="url(#paint3_linear_105_2686)"/>
<rect x="105.724" y="82.6074" width="5.08436" height="9.54778" fill="url(#paint4_linear_105_2686)"/>
<rect x="67.2939" y="109.454" width="5.08436" height="9.54778" fill="url(#paint5_linear_105_2686)"/>
<rect x="80.104" y="109.454" width="5.08436" height="9.54778" fill="url(#paint6_linear_105_2686)"/>
<rect x="92.9141" y="109.454" width="5.08436" height="9.54778" fill="url(#paint7_linear_105_2686)"/>
<rect x="105.724" y="109.454" width="5.08436" height="9.54778" fill="url(#paint8_linear_105_2686)"/>
<rect x="67.2939" y="136.3" width="5.08436" height="9.54778" fill="url(#paint9_linear_105_2686)"/>
<rect x="80.104" y="136.3" width="5.08436" height="9.54778" fill="url(#paint10_linear_105_2686)"/>
<rect x="92.9141" y="136.3" width="5.08436" height="9.54778" fill="url(#paint11_linear_105_2686)"/>
<rect x="105.724" y="136.3" width="5.08436" height="9.54778" fill="url(#paint12_linear_105_2686)"/>
<rect x="67.2939" y="163.146" width="5.08436" height="9.54778" fill="url(#paint13_linear_105_2686)"/>
<rect x="105.724" y="163.146" width="5.08436" height="9.54778" fill="url(#paint14_linear_105_2686)"/>
<rect x="0.199219" y="52.459" width="79.5058" height="139.256" fill="url(#paint15_linear_105_2686)"/>
<rect x="9.78516" y="69.0557" width="7.02852" height="13.1987" fill="url(#paint16_linear_105_2686)"/>
<rect x="28.0342" y="69.0557" width="7.02852" height="13.1987" fill="url(#paint17_linear_105_2686)"/>
<rect x="46.2832" y="69.0557" width="7.02852" height="13.1987" fill="url(#paint18_linear_105_2686)"/>
<rect x="64.5322" y="69.0557" width="7.02852" height="13.1987" fill="url(#paint19_linear_105_2686)"/>
<rect x="9.78516" y="98.333" width="7.02852" height="13.1987" fill="url(#paint20_linear_105_2686)"/>
<rect x="28.0342" y="98.333" width="7.02852" height="13.1987" fill="url(#paint21_linear_105_2686)"/>
<rect x="46.2832" y="98.333" width="7.02852" height="13.1987" fill="url(#paint22_linear_105_2686)"/>
<rect x="64.5322" y="98.333" width="7.02852" height="13.1987" fill="url(#paint23_linear_105_2686)"/>
<rect x="9.78516" y="127.61" width="7.02852" height="13.1987" fill="url(#paint24_linear_105_2686)"/>
<rect x="28.0342" y="127.61" width="7.02852" height="13.1987" fill="url(#paint25_linear_105_2686)"/>
<rect x="46.2832" y="127.61" width="7.02852" height="13.1987" fill="url(#paint26_linear_105_2686)"/>
<rect x="64.5322" y="127.61" width="7.02852" height="13.1987" fill="url(#paint27_linear_105_2686)"/>
<rect x="9.78516" y="156.887" width="7.02852" height="13.1987" fill="url(#paint28_linear_105_2686)"/>
<rect x="64.5322" y="156.887" width="7.02852" height="13.1987" fill="url(#paint29_linear_105_2686)"/>
<g filter="url(#filter0_d_105_2686)">
<rect x="35.0146" y="88.1343" width="55.1586" height="103.581" fill="url(#paint30_linear_105_2686)"/>
<rect x="41.0791" y="98.1162" width="5.50732" height="10.3421" fill="url(#paint31_linear_105_2686)"/>
<rect x="53.5864" y="98.1162" width="5.50732" height="10.3421" fill="url(#paint32_linear_105_2686)"/>
<rect x="66.0938" y="98.1162" width="5.50732" height="10.3421" fill="url(#paint33_linear_105_2686)"/>
<rect x="78.6011" y="98.1162" width="5.50732" height="10.3421" fill="url(#paint34_linear_105_2686)"/>
<rect x="41.0791" y="121.057" width="5.50732" height="10.3421" fill="url(#paint35_linear_105_2686)"/>
<rect x="53.5864" y="121.057" width="5.50732" height="10.3421" fill="url(#paint36_linear_105_2686)"/>
<rect x="66.0938" y="121.057" width="5.50732" height="10.3421" fill="url(#paint37_linear_105_2686)"/>
<rect x="78.6011" y="121.057" width="5.50732" height="10.3421" fill="url(#paint38_linear_105_2686)"/>
<rect x="41.0791" y="143.998" width="5.50732" height="10.3421" fill="url(#paint39_linear_105_2686)"/>
<rect x="53.5864" y="143.998" width="5.50732" height="10.3421" fill="url(#paint40_linear_105_2686)"/>
<rect x="66.0938" y="143.998" width="5.50732" height="10.3421" fill="url(#paint41_linear_105_2686)"/>
<rect x="78.6011" y="143.998" width="5.50732" height="10.3421" fill="url(#paint42_linear_105_2686)"/>
<rect x="41.0791" y="166.938" width="5.50732" height="10.3421" fill="url(#paint43_linear_105_2686)"/>
<rect x="78.6011" y="166.938" width="5.50732" height="10.3421" fill="url(#paint44_linear_105_2686)"/>
<rect x="54.0303" y="166.758" width="17.127" height="23.3977" fill="url(#paint45_linear_105_2686)"/>
<mask id="mask0_105_2686" style="mask-type:alpha" maskUnits="userSpaceOnUse" x="54" y="166" width="18" height="25">
<rect x="54.0303" y="166.938" width="17.127" height="23.3977" fill="url(#paint46_linear_105_2686)"/>
</mask>
<g mask="url(#mask0_105_2686)">
<rect x="43.6904" y="196.434" width="17.127" height="25.431" transform="rotate(-65.6402 43.6904 196.434)" fill="url(#paint47_linear_105_2686)"/>
</g>
</g>
<path fill-rule="evenodd" clip-rule="evenodd" d="M150.805 54.4726C143.176 62.0105 131.057 63.4217 121.783 57.2392C111.173 50.1655 108.306 35.83 115.38 25.2198C118.214 20.9689 122.213 17.9609 126.672 16.3371C125.572 17.4236 124.566 18.6374 123.675 19.974C116.601 30.5841 119.468 44.9197 130.078 51.9933C136.438 56.2329 144.135 56.9017 150.805 54.4726Z" fill="#FFD73D"/>
<circle cx="134.881" cy="79.6643" r="2.5896" fill="#FFD73D"/>
<circle cx="101.558" cy="9.53833" r="1.01343" fill="#FFD73D"/>
<circle cx="20.3499" cy="38.8635" r="1.01343" fill="#FFD73D"/>
<circle cx="55.2908" cy="31.1375" r="2.5896" fill="#FFD73D"/>
<defs>
<filter id="filter0_d_105_2686" x="15.0146" y="68.1343" width="95.1587" height="143.581" filterUnits="userSpaceOnUse" color-interpolation-filters="sRGB">
<feFlood flood-opacity="0" result="BackgroundImageFix"/>
<feColorMatrix in="SourceAlpha" type="matrix" values="0 0 0 0 0 0 0 0 0 0 0 0 0 0 0 0 0 0 127 0" result="hardAlpha"/>
<feOffset/>
<feGaussianBlur stdDeviation="10"/>
<feComposite in2="hardAlpha" operator="out"/>
<feColorMatrix type="matrix" values="0 0 0 0 1 0 0 0 0 1 0 0 0 0 1 0 0 0 0.53 0"/>
<feBlend mode="normal" in2="BackgroundImageFix" result="effect1_dropShadow_105_2686"/>
<feBlend mode="normal" in="SourceGraphic" in2="effect1_dropShadow_105_2686" result="shape"/>
</filter>
<linearGradient id="paint0_linear_105_2686" x1="61.2844" y1="69.7827" x2="156.994" y2="206.466" gradientUnits="userSpaceOnUse">
<stop stop-color="#2D2D2D"/>
<stop offset="1" stop-color="#75617C"/>
</linearGradient>
<linearGradient id="paint1_linear_105_2686" x1="69.8361" y1="82.6074" x2="70.9534" y2="92.3256" gradientUnits="userSpaceOnUse">
<stop stop-color="#7F761F"/>
<stop offset="1" stop-color="#5D5D5D"/>
</linearGradient>
<linearGradient id="paint2_linear_105_2686" x1="82.6462" y1="82.6074" x2="83.7634" y2="92.3256" gradientUnits="userSpaceOnUse">
<stop stop-color="#7F761F"/>
<stop offset="1" stop-color="#5D5D5D"/>
</linearGradient>
<linearGradient id="paint3_linear_105_2686" x1="95.4562" y1="82.6074" x2="96.5735" y2="92.3256" gradientUnits="userSpaceOnUse">
<stop stop-color="#7F761F"/>
<stop offset="1" stop-color="#5D5D5D"/>
</linearGradient>
<linearGradient id="paint4_linear_105_2686" x1="108.266" y1="82.6074" x2="109.384" y2="92.3256" gradientUnits="userSpaceOnUse">
<stop stop-color="#7F761F"/>
<stop offset="1" stop-color="#5D5D5D"/>
</linearGradient>
<linearGradient id="paint5_linear_105_2686" x1="69.8361" y1="109.454" x2="70.9534" y2="119.172" gradientUnits="userSpaceOnUse">
<stop stop-color="#7F761F"/>
<stop offset="1" stop-color="#5D5D5D"/>
</linearGradient>
<linearGradient id="paint6_linear_105_2686" x1="82.6462" y1="109.454" x2="83.7634" y2="119.172" gradientUnits="userSpaceOnUse">
<stop stop-color="#7F761F"/>
<stop offset="1" stop-color="#5D5D5D"/>
</linearGradient>
<linearGradient id="paint7_linear_105_2686" x1="95.4562" y1="109.454" x2="96.5735" y2="119.172" gradientUnits="userSpaceOnUse">
<stop stop-color="#7F761F"/>
<stop offset="1" stop-color="#5D5D5D"/>
</linearGradient>
<linearGradient id="paint8_linear_105_2686" x1="108.266" y1="109.454" x2="109.384" y2="119.172" gradientUnits="userSpaceOnUse">
<stop stop-color="#7F761F"/>
<stop offset="1" stop-color="#5D5D5D"/>
</linearGradient>
<linearGradient id="paint9_linear_105_2686" x1="69.8361" y1="136.3" x2="70.9534" y2="146.018" gradientUnits="userSpaceOnUse">
<stop stop-color="#7F761F"/>
<stop offset="1" stop-color="#5D5D5D"/>
</linearGradient>
<linearGradient id="paint10_linear_105_2686" x1="82.6462" y1="136.3" x2="83.7634" y2="146.018" gradientUnits="userSpaceOnUse">
<stop stop-color="#7F761F"/>
<stop offset="1" stop-color="#5D5D5D"/>
</linearGradient>
<linearGradient id="paint11_linear_105_2686" x1="95.4562" y1="136.3" x2="96.5735" y2="146.018" gradientUnits="userSpaceOnUse">
<stop stop-color="#7F761F"/>
<stop offset="1" stop-color="#5D5D5D"/>
</linearGradient>
<linearGradient id="paint12_linear_105_2686" x1="108.266" y1="136.3" x2="109.384" y2="146.018" gradientUnits="userSpaceOnUse">
<stop stop-color="#7F761F"/>
<stop offset="1" stop-color="#5D5D5D"/>
</linearGradient>
<linearGradient id="paint13_linear_105_2686" x1="69.8361" y1="163.146" x2="70.9534" y2="172.864" gradientUnits="userSpaceOnUse">
<stop stop-color="#7F761F"/>
<stop offset="1" stop-color="#5D5D5D"/>
</linearGradient>
<linearGradient id="paint14_linear_105_2686" x1="108.266" y1="163.146" x2="109.384" y2="172.864" gradientUnits="userSpaceOnUse">
<stop stop-color="#7F761F"/>
<stop offset="1" stop-color="#5D5D5D"/>
</linearGradient>
<linearGradient id="paint15_linear_105_2686" x1="39.9521" y1="52.459" x2="39.9521" y2="191.715" gradientUnits="userSpaceOnUse">
<stop stop-color="#404040"/>
<stop offset="1" stop-color="#6C4F76"/>
</linearGradient>
<linearGradient id="paint16_linear_105_2686" x1="13.2994" y1="69.0557" x2="14.8439" y2="82.4899" gradientUnits="userSpaceOnUse">
<stop stop-color="#908524"/>
<stop offset="1" stop-color="#CBCBCB"/>
</linearGradient>
<linearGradient id="paint17_linear_105_2686" x1="31.5484" y1="69.0557" x2="33.0929" y2="82.4899" gradientUnits="userSpaceOnUse">
<stop stop-color="#908524"/>
<stop offset="1" stop-color="#CBCBCB"/>
</linearGradient>
<linearGradient id="paint18_linear_105_2686" x1="49.7975" y1="69.0557" x2="51.3419" y2="82.4899" gradientUnits="userSpaceOnUse">
<stop stop-color="#908524"/>
<stop offset="1" stop-color="#CBCBCB"/>
</linearGradient>
<linearGradient id="paint19_linear_105_2686" x1="68.0465" y1="69.0557" x2="69.5909" y2="82.4899" gradientUnits="userSpaceOnUse">
<stop stop-color="#908524"/>
<stop offset="1" stop-color="#CBCBCB"/>
</linearGradient>
<linearGradient id="paint20_linear_105_2686" x1="13.2994" y1="98.333" x2="14.8439" y2="111.767" gradientUnits="userSpaceOnUse">
<stop stop-color="#908524"/>
<stop offset="1" stop-color="#CBCBCB"/>
</linearGradient>
<linearGradient id="paint21_linear_105_2686" x1="31.5484" y1="98.333" x2="33.0929" y2="111.767" gradientUnits="userSpaceOnUse">
<stop stop-color="#908524"/>
<stop offset="1" stop-color="#CBCBCB"/>
</linearGradient>
<linearGradient id="paint22_linear_105_2686" x1="49.7975" y1="98.333" x2="51.3419" y2="111.767" gradientUnits="userSpaceOnUse">
<stop stop-color="#908524"/>
<stop offset="1" stop-color="#CBCBCB"/>
</linearGradient>
<linearGradient id="paint23_linear_105_2686" x1="68.0465" y1="98.333" x2="69.5909" y2="111.767" gradientUnits="userSpaceOnUse">
<stop stop-color="#908524"/>
<stop offset="1" stop-color="#CBCBCB"/>
</linearGradient>
<linearGradient id="paint24_linear_105_2686" x1="13.2994" y1="127.61" x2="14.8439" y2="141.044" gradientUnits="userSpaceOnUse">
<stop stop-color="#908524"/>
<stop offset="1" stop-color="#CBCBCB"/>
</linearGradient>
<linearGradient id="paint25_linear_105_2686" x1="31.5484" y1="127.61" x2="33.0929" y2="141.044" gradientUnits="userSpaceOnUse">
<stop stop-color="#908524"/>
<stop offset="1" stop-color="#CBCBCB"/>
</linearGradient>
<linearGradient id="paint26_linear_105_2686" x1="49.7975" y1="127.61" x2="51.3419" y2="141.044" gradientUnits="userSpaceOnUse">
<stop stop-color="#908524"/>
<stop offset="1" stop-color="#CBCBCB"/>
</linearGradient>
<linearGradient id="paint27_linear_105_2686" x1="68.0465" y1="127.61" x2="69.5909" y2="141.044" gradientUnits="userSpaceOnUse">
<stop stop-color="#908524"/>
<stop offset="1" stop-color="#CBCBCB"/>
</linearGradient>
<linearGradient id="paint28_linear_105_2686" x1="13.2994" y1="156.887" x2="14.8439" y2="170.321" gradientUnits="userSpaceOnUse">
<stop stop-color="#908524"/>
<stop offset="1" stop-color="#CBCBCB"/>
</linearGradient>
<linearGradient id="paint29_linear_105_2686" x1="68.0465" y1="156.887" x2="69.5909" y2="170.321" gradientUnits="userSpaceOnUse">
<stop stop-color="#908524"/>
<stop offset="1" stop-color="#CBCBCB"/>
</linearGradient>
<linearGradient id="paint30_linear_105_2686" x1="62.594" y1="88.1343" x2="62.594" y2="191.715" gradientUnits="userSpaceOnUse">
<stop/>
<stop offset="1" stop-color="#603A6D"/>
</linearGradient>
<linearGradient id="paint31_linear_105_2686" x1="43.8328" y1="98.1162" x2="45.0429" y2="108.643" gradientUnits="userSpaceOnUse">
<stop stop-color="#FFEE51"/>
<stop offset="1" stop-color="white"/>
</linearGradient>
<linearGradient id="paint32_linear_105_2686" x1="56.3401" y1="98.1162" x2="57.5503" y2="108.643" gradientUnits="userSpaceOnUse">
<stop stop-color="#FFEE51"/>
<stop offset="1" stop-color="white"/>
</linearGradient>
<linearGradient id="paint33_linear_105_2686" x1="68.8474" y1="98.1162" x2="70.0576" y2="108.643" gradientUnits="userSpaceOnUse">
<stop stop-color="#FFEE51"/>
<stop offset="1" stop-color="white"/>
</linearGradient>
<linearGradient id="paint34_linear_105_2686" x1="81.3547" y1="98.1162" x2="82.5649" y2="108.643" gradientUnits="userSpaceOnUse">
<stop stop-color="#FFEE51"/>
<stop offset="1" stop-color="white"/>
</linearGradient>
<linearGradient id="paint35_linear_105_2686" x1="43.8328" y1="121.057" x2="45.0429" y2="131.583" gradientUnits="userSpaceOnUse">
<stop stop-color="#FFEE51"/>
<stop offset="1" stop-color="white"/>
</linearGradient>
<linearGradient id="paint36_linear_105_2686" x1="56.3401" y1="121.057" x2="57.5503" y2="131.583" gradientUnits="userSpaceOnUse">
<stop stop-color="#FFEE51"/>
<stop offset="1" stop-color="white"/>
</linearGradient>
<linearGradient id="paint37_linear_105_2686" x1="68.8474" y1="121.057" x2="70.0576" y2="131.583" gradientUnits="userSpaceOnUse">
<stop stop-color="#FFEE51"/>
<stop offset="1" stop-color="white"/>
</linearGradient>
<linearGradient id="paint38_linear_105_2686" x1="81.3547" y1="121.057" x2="82.5649" y2="131.583" gradientUnits="userSpaceOnUse">
<stop stop-color="#FFEE51"/>
<stop offset="1" stop-color="white"/>
</linearGradient>
<linearGradient id="paint39_linear_105_2686" x1="43.8328" y1="143.998" x2="45.0429" y2="154.524" gradientUnits="userSpaceOnUse">
<stop stop-color="#FFEE51"/>
<stop offset="1" stop-color="white"/>
</linearGradient>
<linearGradient id="paint40_linear_105_2686" x1="56.3401" y1="143.998" x2="57.5503" y2="154.524" gradientUnits="userSpaceOnUse">
<stop stop-color="#FFEE51"/>
<stop offset="1" stop-color="white"/>
</linearGradient>
<linearGradient id="paint41_linear_105_2686" x1="68.8474" y1="143.998" x2="70.0576" y2="154.524" gradientUnits="userSpaceOnUse">
<stop stop-color="#FFEE51"/>
<stop offset="1" stop-color="white"/>
</linearGradient>
<linearGradient id="paint42_linear_105_2686" x1="81.3547" y1="143.998" x2="82.5649" y2="154.524" gradientUnits="userSpaceOnUse">
<stop stop-color="#FFEE51"/>
<stop offset="1" stop-color="white"/>
</linearGradient>
<linearGradient id="paint43_linear_105_2686" x1="43.8328" y1="166.938" x2="45.0429" y2="177.465" gradientUnits="userSpaceOnUse">
<stop stop-color="#FFEE51"/>
<stop offset="1" stop-color="white"/>
</linearGradient>
<linearGradient id="paint44_linear_105_2686" x1="81.3547" y1="166.938" x2="82.5649" y2="177.465" gradientUnits="userSpaceOnUse">
<stop stop-color="#FFEE51"/>
<stop offset="1" stop-color="white"/>
</linearGradient>
<linearGradient id="paint45_linear_105_2686" x1="62.5938" y1="166.758" x2="62.5938" y2="190.156" gradientUnits="userSpaceOnUse">
<stop stop-color="#686868"/>
<stop offset="1" stop-color="#B5B5B5"/>
</linearGradient>
<linearGradient id="paint46_linear_105_2686" x1="62.5938" y1="166.938" x2="62.5938" y2="190.336" gradientUnits="userSpaceOnUse">
<stop stop-color="#686868"/>
<stop offset="1" stop-color="#B5B5B5"/>
</linearGradient>
<linearGradient id="paint47_linear_105_2686" x1="52.2539" y1="196.434" x2="52.2539" y2="221.865" gradientUnits="userSpaceOnUse">
<stop stop-color="#686868"/>
<stop offset="1" stop-color="#B5B5B5"/>
</linearGradient>
</defs>
</svg>
