<svg width="196" height="176" viewBox="0 0 196 176" fill="none" xmlns="http://www.w3.org/2000/svg">
<path fill-rule="evenodd" clip-rule="evenodd" d="M112.673 112.442C151.679 100.563 177.415 71.6112 170.157 47.7765C162.898 23.9418 125.392 14.25 86.386 26.1293C47.3797 38.0086 21.6432 66.9605 28.902 90.7952C36.1608 114.63 73.6661 124.322 112.673 112.442ZM78.473 110.412C86.8222 109.836 93.3052 105.234 92.9532 100.132C92.6012 95.0303 85.5476 91.3615 77.1984 91.9375C68.8492 92.5135 62.3662 97.1162 62.7182 102.218C63.0702 107.32 70.1239 110.989 78.473 110.412Z" fill="url(#paint0_linear_260_2350)"/>
<path d="M70.2603 54.5349C71.6522 59.1054 66.9954 64.5724 59.8589 66.7458C52.7225 68.9192 45.8089 66.9759 44.417 62.4054C43.025 57.8349 48.6287 51.98 54.24 48.2957C60.7956 48.1511 68.8683 49.9644 70.2603 54.5349Z" fill="#FF7D8D"/>
<path d="M103.579 35.0632C104.971 39.6337 100.314 45.1007 93.1773 47.2741C86.0409 49.4475 79.1273 47.5042 77.7353 42.9337C76.3434 38.3632 81.9471 32.5083 87.5584 28.824C94.114 28.6794 102.187 30.4927 103.579 35.0632Z" fill="#FCFF7B"/>
<path d="M142.556 34.1696C143.948 38.7402 139.291 44.2072 132.155 46.3806C125.018 48.5539 118.105 46.6107 116.713 42.0402C115.321 37.4696 120.925 31.6147 126.536 27.9305C133.092 27.7859 141.164 29.5991 142.556 34.1696Z" fill="#C67DFF"/>
<path d="M163.249 55.7619C164.64 60.3324 159.984 65.7995 152.847 67.9728C145.711 70.1462 138.797 68.203 137.405 63.6324C136.013 59.0619 141.617 53.207 147.228 49.5227C153.784 49.3782 161.857 51.1914 163.249 55.7619Z" fill="#24B0FF"/>
<path d="M140.524 82.844C141.916 87.4145 137.259 92.8815 130.123 95.0549C122.986 97.2283 116.073 95.285 114.681 90.7145C113.289 86.144 118.892 80.289 124.504 76.6048C131.059 76.4602 139.132 78.2734 140.524 82.844Z" fill="#FEFEFE"/>
<path d="M86.5874 129.285C107.399 129.993 149.6 114.758 147.736 104.786C147.716 104.676 147.677 104.564 147.627 104.463C144.505 98.0797 132.953 106.38 128.383 111.476C116.294 124.955 36.8883 180.2 28.995 152.86C23.9356 135.335 64.4879 128.532 86.5874 129.285Z" stroke="#C3C3C3" stroke-width="1.76636"/>
<ellipse cx="116.921" cy="121.195" rx="3.15272" ry="3.13825" fill="url(#paint1_linear_260_2350)"/>
<ellipse cx="111.224" cy="126.445" rx="3.15272" ry="3.13825" fill="url(#paint2_linear_260_2350)"/>
<ellipse cx="104.301" cy="130.814" rx="3.15272" ry="3.13825" fill="url(#paint3_linear_260_2350)"/>
<ellipse cx="98.5316" cy="134.567" rx="3.15272" ry="3.13825" fill="url(#paint4_linear_260_2350)"/>
<ellipse cx="104.301" cy="130.814" rx="3.15272" ry="3.13825" fill="url(#paint5_linear_260_2350)"/>
<ellipse cx="28.2684" cy="151.01" rx="4.18833" ry="4.1691" fill="url(#paint6_linear_260_2350)"/>
<ellipse cx="31.6297" cy="142.672" rx="4.18833" ry="4.1691" fill="url(#paint7_linear_260_2350)"/>
<ellipse cx="45.8157" cy="134.749" rx="3.77076" ry="3.75345" fill="url(#paint8_linear_260_2350)"/>
<ellipse cx="38.2747" cy="137.706" rx="3.77076" ry="3.75345" fill="url(#paint9_linear_260_2350)"/>
<ellipse cx="52.5217" cy="132.888" rx="3.77076" ry="3.75345" fill="url(#paint10_linear_260_2350)"/>
<ellipse cx="60.0618" cy="131.292" rx="3.77076" ry="3.75345" fill="url(#paint11_linear_260_2350)"/>
<ellipse cx="67.6057" cy="130.199" rx="3.77076" ry="3.75345" fill="url(#paint12_linear_260_2350)"/>
<ellipse cx="75.1458" cy="129.134" rx="3.77076" ry="3.75345" fill="url(#paint13_linear_260_2350)"/>
<ellipse cx="83.3772" cy="128.086" rx="3.77076" ry="3.75345" fill="url(#paint14_linear_260_2350)"/>
<ellipse cx="91.6077" cy="128.086" rx="3.77076" ry="3.75345" fill="url(#paint15_linear_260_2350)"/>
<ellipse cx="99.8401" cy="128.086" rx="3.77076" ry="3.75345" fill="url(#paint16_linear_260_2350)"/>
<ellipse cx="108.072" cy="127.039" rx="3.77076" ry="3.75345" fill="url(#paint17_linear_260_2350)"/>
<ellipse cx="116.304" cy="125.381" rx="3.77076" ry="3.75345" fill="url(#paint18_linear_260_2350)"/>
<ellipse cx="135.322" cy="105.912" rx="3.15272" ry="3.13825" fill="url(#paint19_linear_260_2350)"/>
<ellipse cx="130.838" cy="109.894" rx="3.15272" ry="3.13825" fill="url(#paint20_linear_260_2350)"/>
<ellipse cx="125.878" cy="113.479" rx="3.15272" ry="3.13825" fill="url(#paint21_linear_260_2350)"/>
<ellipse cx="121.287" cy="117.313" rx="3.15272" ry="3.13825" fill="url(#paint22_linear_260_2350)"/>
<path d="M48.775 104.627H87.2059L68.6002 81.2695L48.775 104.627Z" fill="url(#paint23_linear_260_2350)"/>
<path d="M113.696 104.627L99.7641 81.2695L87.2059 104.627H113.696Z" fill="url(#paint24_linear_260_2350)"/>
<path d="M37.4363 81.2695L22.4043 104.627H48.775L37.4363 81.2695Z" fill="url(#paint25_linear_260_2350)"/>
<path d="M22.4043 104.627L67.7272 162.493L48.775 104.627H22.4043Z" fill="url(#paint26_linear_260_2350)"/>
<path d="M67.7272 162.493L87.2059 104.627H48.775L67.7272 162.493Z" fill="url(#paint27_linear_260_2350)"/>
<path d="M67.7272 162.493L113.696 104.627H87.2059L67.7272 162.493Z" fill="url(#paint28_linear_260_2350)"/>
<path d="M68.6002 81.2695H37.4363L48.775 104.627L68.6002 81.2695Z" fill="url(#paint29_linear_260_2350)"/>
<path d="M99.7641 81.2695H68.6002L87.2059 104.627L99.7641 81.2695Z" fill="url(#paint30_linear_260_2350)"/>
<path d="M37.4363 81.2695L22.4043 104.627M37.4363 81.2695H68.6002M37.4363 81.2695L48.775 104.627M22.4043 104.627L67.7272 162.493M22.4043 104.627H48.775M113.696 104.627L99.7641 81.2695M113.696 104.627L67.7272 162.493M113.696 104.627H87.2059M99.7641 81.2695H68.6002M99.7641 81.2695L87.2059 104.627M67.7272 162.493L87.2059 104.627M67.7272 162.493L48.775 104.627M87.2059 104.627H48.775M87.2059 104.627L68.6002 81.2695M48.775 104.627L68.6002 81.2695" stroke="url(#paint31_linear_260_2350)" stroke-width="1.76636"/>
<ellipse cx="92.5936" cy="139.147" rx="4.18833" ry="4.1691" fill="url(#paint32_linear_260_2350)"/>
<ellipse cx="85.1737" cy="143.316" rx="4.18833" ry="4.1691" fill="url(#paint33_linear_260_2350)"/>
<ellipse cx="76.7967" cy="147.486" rx="4.18833" ry="4.1691" fill="url(#paint34_linear_260_2350)"/>
<ellipse cx="69.0448" cy="151.654" rx="4.18833" ry="4.1691" fill="url(#paint35_linear_260_2350)"/>
<ellipse cx="60.6678" cy="155.179" rx="4.18833" ry="4.1691" fill="url(#paint36_linear_260_2350)"/>
<ellipse cx="52.2918" cy="158.323" rx="4.18833" ry="4.1691" fill="url(#paint37_linear_260_2350)"/>
<ellipse cx="42.7206" cy="159.348" rx="4.18833" ry="4.1691" fill="url(#paint38_linear_260_2350)"/>
<ellipse cx="33.5321" cy="158.323" rx="4.18833" ry="4.1691" fill="url(#paint39_linear_260_2350)"/>
<path d="M120.483 82.2629L111.744 89.1779L157.629 143.856L165.342 136.839L120.483 82.2629Z" fill="url(#paint40_linear_260_2350)"/>
<path d="M108.203 49.7256L78.5643 70.2841C77.7471 70.8509 77.5572 71.979 78.1441 72.7798L83.0568 79.4829C83.6534 80.2969 84.8109 80.4449 85.5955 79.8074L88.993 77.0468C89.5754 76.5736 89.7786 75.7747 89.4926 75.0821C89.0033 73.8971 89.957 72.6168 91.2336 72.7455L94.7229 73.0971C95.9528 73.221 97.7159 72.9047 99.1442 72.552C100.132 72.3079 101.168 72.8685 101.427 73.8515L102.544 78.0839C102.605 78.3142 102.712 78.5298 102.858 78.7176L110.954 89.1039C111.565 89.8878 112.704 90.0119 113.472 89.3781L119.905 84.069C120.675 83.4338 120.767 82.2891 120.11 81.5408L114.566 75.2337C114.478 75.1338 114.379 75.0442 114.271 74.9665L107.164 69.8555C106.847 69.6274 106.61 69.3024 106.526 68.9207C105.875 65.9469 106.098 60.0617 111.547 56.2497C117.38 52.1693 122.153 56.0649 123.81 58.5227L123.988 56.7877C124.049 56.1893 123.801 55.6014 123.331 55.2274L117.39 50.5064C117.125 50.2961 116.806 50.1663 116.469 50.1324L109.389 49.4189C108.97 49.3766 108.549 49.4854 108.203 49.7256Z" fill="url(#paint41_linear_260_2350)"/>
<ellipse cx="123.843" cy="122.692" rx="3.77076" ry="3.75345" fill="url(#paint42_linear_260_2350)"/>
<ellipse cx="131.385" cy="118.938" rx="3.77076" ry="3.75345" fill="url(#paint43_linear_260_2350)"/>
<ellipse cx="138.926" cy="115.185" rx="3.77076" ry="3.75345" fill="url(#paint44_linear_260_2350)"/>
<ellipse cx="144.955" cy="110.421" rx="3.77076" ry="3.75345" fill="url(#paint45_linear_260_2350)"/>
<ellipse cx="147.06" cy="103.152" rx="3.53257" ry="3.51636" fill="url(#paint46_linear_260_2350)"/>
<ellipse cx="140.375" cy="102.774" rx="3.15272" ry="3.13825" fill="url(#paint47_linear_260_2350)"/>
<defs>
<linearGradient id="paint0_linear_260_2350" x1="86.386" y1="26.1293" x2="112.673" y2="112.442" gradientUnits="userSpaceOnUse">
<stop stop-color="#FFD480"/>
<stop offset="0.44" stop-color="#FFE7B2"/>
<stop offset="1" stop-color="#FFEEC2"/>
</linearGradient>
<linearGradient id="paint1_linear_260_2350" x1="116.921" y1="118.057" x2="116.921" y2="124.333" gradientUnits="userSpaceOnUse">
<stop stop-color="#FEFFEF"/>
<stop offset="1" stop-color="#E2E4C6"/>
</linearGradient>
<linearGradient id="paint2_linear_260_2350" x1="111.224" y1="123.307" x2="111.224" y2="129.583" gradientUnits="userSpaceOnUse">
<stop stop-color="#E6E8D4"/>
<stop offset="1" stop-color="#CED0B1"/>
</linearGradient>
<linearGradient id="paint3_linear_260_2350" x1="104.301" y1="127.676" x2="104.301" y2="133.952" gradientUnits="userSpaceOnUse">
<stop stop-color="#EAEEC0"/>
<stop offset="1" stop-color="#D4D5C3"/>
</linearGradient>
<linearGradient id="paint4_linear_260_2350" x1="98.5316" y1="131.429" x2="98.5316" y2="137.706" gradientUnits="userSpaceOnUse">
<stop stop-color="#EAEEC0"/>
<stop offset="1" stop-color="#D4D5C3"/>
</linearGradient>
<linearGradient id="paint5_linear_260_2350" x1="104.301" y1="127.676" x2="104.301" y2="133.952" gradientUnits="userSpaceOnUse">
<stop stop-color="#EAEEC0"/>
<stop offset="1" stop-color="#D4D5C3"/>
</linearGradient>
<linearGradient id="paint6_linear_260_2350" x1="28.2684" y1="146.841" x2="28.2684" y2="155.179" gradientUnits="userSpaceOnUse">
<stop stop-color="#FEFFEF"/>
<stop offset="1" stop-color="#E2E4C6"/>
</linearGradient>
<linearGradient id="paint7_linear_260_2350" x1="31.6297" y1="138.502" x2="31.6297" y2="146.841" gradientUnits="userSpaceOnUse">
<stop stop-color="#FEFFEF"/>
<stop offset="1" stop-color="#E2E4C6"/>
</linearGradient>
<linearGradient id="paint8_linear_260_2350" x1="45.8157" y1="130.996" x2="45.8157" y2="138.503" gradientUnits="userSpaceOnUse">
<stop stop-color="#FEFFEF"/>
<stop offset="1" stop-color="#E2E4C6"/>
</linearGradient>
<linearGradient id="paint9_linear_260_2350" x1="38.2747" y1="133.952" x2="38.2747" y2="141.459" gradientUnits="userSpaceOnUse">
<stop stop-color="#FEFFEF"/>
<stop offset="1" stop-color="#E2E4C6"/>
</linearGradient>
<linearGradient id="paint10_linear_260_2350" x1="52.5217" y1="129.135" x2="52.5217" y2="136.642" gradientUnits="userSpaceOnUse">
<stop stop-color="#FEFFEF"/>
<stop offset="1" stop-color="#E2E4C6"/>
</linearGradient>
<linearGradient id="paint11_linear_260_2350" x1="60.0618" y1="127.538" x2="60.0618" y2="135.045" gradientUnits="userSpaceOnUse">
<stop stop-color="#FEFFEF"/>
<stop offset="1" stop-color="#E2E4C6"/>
</linearGradient>
<linearGradient id="paint12_linear_260_2350" x1="67.6057" y1="126.445" x2="67.6057" y2="133.952" gradientUnits="userSpaceOnUse">
<stop stop-color="#FEFFEF"/>
<stop offset="1" stop-color="#E2E4C6"/>
</linearGradient>
<linearGradient id="paint13_linear_260_2350" x1="75.1458" y1="125.381" x2="75.1458" y2="132.888" gradientUnits="userSpaceOnUse">
<stop stop-color="#FEFFEF"/>
<stop offset="1" stop-color="#E2E4C6"/>
</linearGradient>
<linearGradient id="paint14_linear_260_2350" x1="83.3772" y1="124.333" x2="83.3772" y2="131.84" gradientUnits="userSpaceOnUse">
<stop stop-color="#FEFFEF"/>
<stop offset="1" stop-color="#E2E4C6"/>
</linearGradient>
<linearGradient id="paint15_linear_260_2350" x1="91.6077" y1="124.333" x2="91.6077" y2="131.84" gradientUnits="userSpaceOnUse">
<stop stop-color="#FEFFEF"/>
<stop offset="1" stop-color="#E2E4C6"/>
</linearGradient>
<linearGradient id="paint16_linear_260_2350" x1="99.8401" y1="124.333" x2="99.8401" y2="131.84" gradientUnits="userSpaceOnUse">
<stop stop-color="#FEFFEF"/>
<stop offset="1" stop-color="#E2E4C6"/>
</linearGradient>
<linearGradient id="paint17_linear_260_2350" x1="108.072" y1="123.285" x2="108.072" y2="130.792" gradientUnits="userSpaceOnUse">
<stop stop-color="#FEFFEF"/>
<stop offset="1" stop-color="#E2E4C6"/>
</linearGradient>
<linearGradient id="paint18_linear_260_2350" x1="116.304" y1="121.627" x2="116.304" y2="129.134" gradientUnits="userSpaceOnUse">
<stop stop-color="#FEFFEF"/>
<stop offset="1" stop-color="#E2E4C6"/>
</linearGradient>
<linearGradient id="paint19_linear_260_2350" x1="135.322" y1="102.773" x2="135.322" y2="109.05" gradientUnits="userSpaceOnUse">
<stop stop-color="#FEFFEF"/>
<stop offset="1" stop-color="#E2E4C6"/>
</linearGradient>
<linearGradient id="paint20_linear_260_2350" x1="130.838" y1="106.756" x2="130.838" y2="113.032" gradientUnits="userSpaceOnUse">
<stop stop-color="#FEFFEF"/>
<stop offset="1" stop-color="#E2E4C6"/>
</linearGradient>
<linearGradient id="paint21_linear_260_2350" x1="125.878" y1="110.341" x2="125.878" y2="116.617" gradientUnits="userSpaceOnUse">
<stop stop-color="#FEFFEF"/>
<stop offset="1" stop-color="#E2E4C6"/>
</linearGradient>
<linearGradient id="paint22_linear_260_2350" x1="121.287" y1="114.175" x2="121.287" y2="120.451" gradientUnits="userSpaceOnUse">
<stop stop-color="#FEFFEF"/>
<stop offset="1" stop-color="#E2E4C6"/>
</linearGradient>
<linearGradient id="paint23_linear_260_2350" x1="57.0914" y1="87.7596" x2="74.4639" y2="106.239" gradientUnits="userSpaceOnUse">
<stop stop-color="#FDF7FF"/>
<stop offset="1" stop-color="#88DDF8"/>
</linearGradient>
<linearGradient id="paint24_linear_260_2350" x1="84.2741" y1="84.3765" x2="107.571" y2="105.243" gradientUnits="userSpaceOnUse">
<stop stop-color="#FDF7FF"/>
<stop offset="1" stop-color="#88DDF8"/>
</linearGradient>
<linearGradient id="paint25_linear_260_2350" x1="49.9031" y1="81.2695" x2="56.0109" y2="107.96" gradientUnits="userSpaceOnUse">
<stop stop-color="#FDF7FF"/>
<stop offset="1" stop-color="#88DDF8"/>
</linearGradient>
<linearGradient id="paint26_linear_260_2350" x1="66.5903" y1="162.493" x2="40.0927" y2="104.789" gradientUnits="userSpaceOnUse">
<stop stop-color="#FDF7FF"/>
<stop offset="1" stop-color="#88DDF8"/>
</linearGradient>
<linearGradient id="paint27_linear_260_2350" x1="89.9524" y1="112.803" x2="56.0709" y2="107.904" gradientUnits="userSpaceOnUse">
<stop stop-color="#FDF7FF"/>
<stop offset="1" stop-color="#88DDF8"/>
</linearGradient>
<linearGradient id="paint28_linear_260_2350" x1="101.762" y1="97.9815" x2="92.5998" y2="136.588" gradientUnits="userSpaceOnUse">
<stop stop-color="#FDF7FF"/>
<stop offset="1" stop-color="#88DDF8"/>
</linearGradient>
<linearGradient id="paint29_linear_260_2350" x1="78.8708" y1="106.097" x2="39.2241" y2="81.1053" gradientUnits="userSpaceOnUse">
<stop stop-color="#FDF7FF"/>
<stop offset="1" stop-color="#88DDF8"/>
</linearGradient>
<linearGradient id="paint30_linear_260_2350" x1="65.9626" y1="103.042" x2="78.8818" y2="79.9932" gradientUnits="userSpaceOnUse">
<stop stop-color="#FDF7FF"/>
<stop offset="1" stop-color="#59D7FF"/>
</linearGradient>
<linearGradient id="paint31_linear_260_2350" x1="68.0503" y1="81.2695" x2="68.0503" y2="162.493" gradientUnits="userSpaceOnUse">
<stop stop-color="#C9FFF5"/>
<stop offset="0.585" stop-color="#71A1FF"/>
<stop offset="1" stop-color="#C3FFED"/>
</linearGradient>
<linearGradient id="paint32_linear_260_2350" x1="94.3691" y1="135.601" x2="92.6091" y2="143.319" gradientUnits="userSpaceOnUse">
<stop stop-color="#FCFFD5"/>
<stop offset="1" stop-color="#D1D4B0"/>
</linearGradient>
<linearGradient id="paint33_linear_260_2350" x1="85.1737" y1="139.147" x2="85.1737" y2="147.485" gradientUnits="userSpaceOnUse">
<stop stop-color="#FCFFDA"/>
<stop offset="1" stop-color="#E2E4C6"/>
<stop offset="1" stop-color="#D4D8AC"/>
</linearGradient>
<linearGradient id="paint34_linear_260_2350" x1="76.7967" y1="143.316" x2="76.7967" y2="151.655" gradientUnits="userSpaceOnUse">
<stop stop-color="#FEFFEF"/>
<stop offset="1" stop-color="#E2E4C6"/>
</linearGradient>
<linearGradient id="paint35_linear_260_2350" x1="69.0448" y1="147.485" x2="69.0448" y2="155.824" gradientUnits="userSpaceOnUse">
<stop stop-color="#FEFFEF"/>
<stop offset="1" stop-color="#E2E4C6"/>
</linearGradient>
<linearGradient id="paint36_linear_260_2350" x1="60.6678" y1="151.01" x2="60.6678" y2="159.348" gradientUnits="userSpaceOnUse">
<stop stop-color="#FEFFEF"/>
<stop offset="1" stop-color="#E2E4C6"/>
</linearGradient>
<linearGradient id="paint37_linear_260_2350" x1="52.2918" y1="154.154" x2="52.2918" y2="162.493" gradientUnits="userSpaceOnUse">
<stop stop-color="#FEFFEF"/>
<stop offset="1" stop-color="#E2E4C6"/>
</linearGradient>
<linearGradient id="paint38_linear_260_2350" x1="42.7206" y1="155.179" x2="42.7206" y2="163.517" gradientUnits="userSpaceOnUse">
<stop stop-color="#FEFFEF"/>
<stop offset="1" stop-color="#E2E4C6"/>
</linearGradient>
<linearGradient id="paint39_linear_260_2350" x1="33.5321" y1="154.154" x2="33.5321" y2="162.493" gradientUnits="userSpaceOnUse">
<stop stop-color="#FEFFEF"/>
<stop offset="1" stop-color="#E2E4C6"/>
</linearGradient>
<linearGradient id="paint40_linear_260_2350" x1="122.963" y1="105.353" x2="133.314" y2="96.7367" gradientUnits="userSpaceOnUse">
<stop stop-color="#C2B9B0"/>
<stop offset="0.46" stop-color="#ABA39C"/>
<stop offset="1" stop-color="#CCBFB4"/>
</linearGradient>
<linearGradient id="paint41_linear_260_2350" x1="128.097" y1="65.7445" x2="92.8928" y2="94.3475" gradientUnits="userSpaceOnUse">
<stop stop-color="#5A5A5A"/>
<stop offset="0.163831" stop-color="#838383"/>
<stop offset="0.47" stop-color="#656565"/>
<stop offset="0.746384" stop-color="#C1C1C1"/>
<stop offset="1" stop-color="#929292"/>
</linearGradient>
<linearGradient id="paint42_linear_260_2350" x1="123.843" y1="118.938" x2="123.843" y2="126.445" gradientUnits="userSpaceOnUse">
<stop stop-color="#FEFFEF"/>
<stop offset="1" stop-color="#E2E4C6"/>
</linearGradient>
<linearGradient id="paint43_linear_260_2350" x1="131.385" y1="115.185" x2="131.385" y2="122.691" gradientUnits="userSpaceOnUse">
<stop stop-color="#FEFFEF"/>
<stop offset="1" stop-color="#E2E4C6"/>
</linearGradient>
<linearGradient id="paint44_linear_260_2350" x1="138.926" y1="111.432" x2="138.926" y2="118.939" gradientUnits="userSpaceOnUse">
<stop stop-color="#FEFFEF"/>
<stop offset="1" stop-color="#E2E4C6"/>
</linearGradient>
<linearGradient id="paint45_linear_260_2350" x1="144.955" y1="106.668" x2="144.955" y2="114.175" gradientUnits="userSpaceOnUse">
<stop stop-color="#FEFFEF"/>
<stop offset="1" stop-color="#E2E4C6"/>
</linearGradient>
<linearGradient id="paint46_linear_260_2350" x1="147.06" y1="99.6353" x2="147.06" y2="106.668" gradientUnits="userSpaceOnUse">
<stop stop-color="#FEFFEF"/>
<stop offset="1" stop-color="#E2E4C6"/>
</linearGradient>
<linearGradient id="paint47_linear_260_2350" x1="140.375" y1="99.6353" x2="140.375" y2="105.912" gradientUnits="userSpaceOnUse">
<stop stop-color="#FEFFEF"/>
<stop offset="1" stop-color="#E2E4C6"/>
</linearGradient>
</defs>
</svg>
