<svg width="198" height="166" viewBox="0 0 198 166" fill="none" xmlns="http://www.w3.org/2000/svg">
<path fill-rule="evenodd" clip-rule="evenodd" d="M64.3071 37.8334C64.3071 40.5298 64.983 43.0746 66.1809 45.3197C58.6198 50.2836 53.627 58.8382 53.627 68.559C53.627 82.5091 63.9097 94.0576 77.3091 96.0385C81.3773 101.906 89.3438 105.892 98.5056 105.892C106.482 105.892 113.553 102.87 117.934 98.2161C121.177 99.2678 124.65 99.8376 128.261 99.8376C146.161 99.8376 160.671 85.8338 160.671 68.5591C160.671 56.6734 153.802 46.336 143.686 41.0431C144.704 38.7181 145.269 36.1494 145.269 33.4487C145.269 22.9817 136.783 14.4966 126.316 14.4966C125.944 14.4966 125.575 14.5073 125.208 14.5285C121.177 6.13366 113.563 0.472656 104.834 0.472656C93.885 0.472656 84.6903 9.37924 82.1215 21.4157C81.8844 21.4063 81.646 21.4016 81.4065 21.4016C71.9628 21.4016 64.3071 28.7584 64.3071 37.8334Z" fill="#13BF6C"/>
<mask id="mask0_79_8001" style="mask-type:alpha" maskUnits="userSpaceOnUse" x="53" y="0" width="108" height="106">
<path fill-rule="evenodd" clip-rule="evenodd" d="M64.3071 37.8334C64.3071 40.5298 64.983 43.0746 66.1809 45.3197C58.6198 50.2836 53.627 58.8382 53.627 68.559C53.627 82.5091 63.9097 94.0576 77.3091 96.0385C81.3773 101.906 89.3438 105.892 98.5056 105.892C106.482 105.892 113.553 102.87 117.934 98.2161C121.177 99.2678 124.65 99.8376 128.261 99.8376C146.161 99.8376 160.671 85.8338 160.671 68.5591C160.671 56.6734 153.802 46.336 143.686 41.0431C144.704 38.7181 145.269 36.1494 145.269 33.4487C145.269 22.9817 136.783 14.4966 126.316 14.4966C125.944 14.4966 125.575 14.5073 125.208 14.5285C121.177 6.13366 113.563 0.472656 104.834 0.472656C93.885 0.472656 84.6903 9.37924 82.1215 21.4157C81.8844 21.4063 81.646 21.4016 81.4065 21.4016C71.9628 21.4016 64.3071 28.7584 64.3071 37.8334Z" fill="#82E85E"/>
</mask>
<g mask="url(#mask0_79_8001)">
<circle cx="129.654" cy="45.4626" r="56.0588" fill="#00DC80"/>
</g>
<path fill-rule="evenodd" clip-rule="evenodd" d="M113.354 53.9932C113.354 50.6854 110.672 48.0039 107.364 48.0039C104.056 48.0039 101.375 50.6854 101.375 53.9932L101.375 69.6283L92.3428 59.7699C90.8305 58.1192 88.2663 58.007 86.6156 59.5193C84.9649 61.0317 84.8527 63.5958 86.3651 65.2466L98.6482 78.6536C99.3837 79.4564 100.368 79.8953 101.375 79.9604L101.375 130.322C101.375 133.63 104.056 136.312 107.364 136.312C110.672 136.312 113.354 133.63 113.354 130.322L113.354 53.9932Z" fill="#A0886C"/>
<mask id="mask1_79_8001" style="mask-type:alpha" maskUnits="userSpaceOnUse" x="53" y="0" width="108" height="106">
<path fill-rule="evenodd" clip-rule="evenodd" d="M64.3071 37.8334C64.3071 40.5298 64.983 43.0746 66.1809 45.3197C58.6198 50.2836 53.627 58.8382 53.627 68.559C53.627 82.5091 63.9097 94.0576 77.3091 96.0385C81.3773 101.906 89.3438 105.892 98.5056 105.892C106.482 105.892 113.553 102.87 117.934 98.2161C121.177 99.2678 124.65 99.8376 128.261 99.8376C146.161 99.8376 160.671 85.8338 160.671 68.5591C160.671 56.6734 153.802 46.336 143.686 41.0431C144.704 38.7181 145.269 36.1494 145.269 33.4487C145.269 22.9817 136.783 14.4966 126.316 14.4966C125.944 14.4966 125.575 14.5073 125.208 14.5285C121.177 6.13366 113.563 0.472656 104.834 0.472656C93.885 0.472656 84.6903 9.37924 82.1215 21.4157C81.8844 21.4063 81.646 21.4016 81.4065 21.4016C71.9628 21.4016 64.3071 28.7584 64.3071 37.8334Z" fill="#82E85E"/>
</mask>
<g mask="url(#mask1_79_8001)">
<circle cx="129.654" cy="45.4626" r="56.0588" fill="url(#paint0_linear_79_8001)"/>
</g>
<path fill-rule="evenodd" clip-rule="evenodd" d="M113.354 53.9932C113.354 50.6854 110.672 48.0039 107.364 48.0039C104.056 48.0039 101.375 50.6854 101.375 53.9932L101.375 69.6283L92.3428 59.7699C90.8305 58.1192 88.2663 58.007 86.6156 59.5193C84.9649 61.0317 84.8527 63.5958 86.3651 65.2466L98.6482 78.6536C99.3837 79.4564 100.368 79.8953 101.375 79.9604L101.375 130.322C101.375 133.63 104.056 136.312 107.364 136.312C110.672 136.312 113.354 133.63 113.354 130.322L113.354 53.9932Z" fill="url(#paint1_linear_79_8001)"/>
<rect x="91.4336" y="97.1318" width="106.461" height="8.41258" rx="4.20629" fill="url(#paint2_linear_79_8001)"/>
<rect x="91.4336" y="110.532" width="106.461" height="8.41258" rx="4.20629" fill="url(#paint3_linear_79_8001)"/>
<rect x="120.637" y="92.1577" width="73.0429" height="9.49129" rx="4.74564" transform="rotate(90 120.637 92.1577)" fill="url(#paint4_linear_79_8001)"/>
<rect x="178.183" y="92.1577" width="73.0429" height="9.49129" rx="4.74564" transform="rotate(90 178.183 92.1577)" fill="url(#paint5_linear_79_8001)"/>
<rect x="91.4336" y="128.679" width="106.461" height="15.2222" rx="7.61108" fill="url(#paint6_linear_79_8001)"/>
<path fill-rule="evenodd" clip-rule="evenodd" d="M10.7852 59.1326C10.7852 61.8291 11.4614 64.374 12.6592 66.6191C5.09814 71.583 0.10498 80.1377 0.10498 89.8582C0.10498 103.808 10.3877 115.357 23.7871 117.338C27.8555 123.205 35.8218 127.191 44.9839 127.191C52.9604 127.191 60.0317 124.169 64.4121 119.515C67.6558 120.567 71.1284 121.137 74.7393 121.137C92.6387 121.137 107.149 107.133 107.149 89.8584C107.149 77.9727 100.28 67.6355 90.1636 62.3425C91.1816 60.0176 91.7466 57.4487 91.7466 54.748C91.7466 44.281 83.2612 35.7959 72.7944 35.7959C72.4224 35.7959 72.0522 35.8066 71.6855 35.8279C67.6548 27.4331 60.041 21.772 51.312 21.772C40.3628 21.772 31.1685 30.6787 28.5996 42.7151C28.3623 42.7058 28.124 42.7009 27.8843 42.7009C18.4409 42.7009 10.7852 50.0576 10.7852 59.1326Z" fill="url(#paint7_linear_79_8001)"/>
<mask id="mask2_79_8001" style="mask-type:alpha" maskUnits="userSpaceOnUse" x="0" y="21" width="108" height="107">
<path fill-rule="evenodd" clip-rule="evenodd" d="M10.7852 59.1327C10.7852 61.8292 11.461 64.3739 12.6589 66.6191C5.09781 71.583 0.10498 80.1375 0.10498 89.8583C0.10498 103.808 10.3877 115.357 23.7872 117.338C27.8553 123.205 35.8218 127.191 44.9836 127.191C52.9605 127.191 60.0312 124.169 64.4118 119.515C67.6555 120.567 71.1284 121.137 74.7393 121.137C92.6386 121.137 107.149 107.133 107.149 89.8584C107.149 77.9727 100.28 67.6354 90.1637 62.3424C91.1817 60.0174 91.7466 57.4487 91.7466 54.748C91.7466 44.2811 83.2614 35.7959 72.7944 35.7959C72.4222 35.7959 72.0526 35.8066 71.6857 35.8278C67.6553 27.433 60.0412 21.772 51.3121 21.772C40.3631 21.772 31.1683 30.6786 28.5995 42.715C28.3624 42.7057 28.124 42.7009 27.8845 42.7009C18.4408 42.7009 10.7852 50.0577 10.7852 59.1327Z" fill="#82E85E"/>
</mask>
<g mask="url(#mask2_79_8001)">
<circle cx="76.1321" cy="66.762" r="56.0588" fill="url(#paint8_linear_79_8001)"/>
</g>
<path fill-rule="evenodd" clip-rule="evenodd" d="M59.8316 75.2925C59.8316 71.9846 57.15 69.3032 53.8423 69.3032C50.5342 69.3032 47.8531 71.9846 47.8531 75.2925V90.9277L38.8209 81.0691C37.3086 79.4185 34.7442 79.3064 33.0938 80.8186C31.4429 82.3311 31.3306 84.8953 32.8433 86.5459L45.1265 99.9529C45.8619 100.756 46.8462 101.195 47.8531 101.26V151.622C47.8531 154.929 50.5342 157.611 53.8423 157.611C57.15 157.611 59.8316 154.929 59.8316 151.622V75.2925Z" fill="#CBAE8C"/>
<mask id="mask3_79_8001" style="mask-type:alpha" maskUnits="userSpaceOnUse" x="0" y="21" width="108" height="107">
<path fill-rule="evenodd" clip-rule="evenodd" d="M10.7852 59.1327C10.7852 61.8292 11.461 64.3739 12.6589 66.6191C5.09781 71.583 0.10498 80.1375 0.10498 89.8583C0.10498 103.808 10.3877 115.357 23.7872 117.338C27.8553 123.205 35.8218 127.191 44.9836 127.191C52.9605 127.191 60.0312 124.169 64.4118 119.515C67.6555 120.567 71.1284 121.137 74.7393 121.137C92.6386 121.137 107.149 107.133 107.149 89.8584C107.149 77.9727 100.28 67.6354 90.1637 62.3424C91.1817 60.0174 91.7466 57.4487 91.7466 54.748C91.7466 44.2811 83.2614 35.7959 72.7944 35.7959C72.4222 35.7959 72.0526 35.8066 71.6857 35.8278C67.6553 27.433 60.0412 21.772 51.3121 21.772C40.3631 21.772 31.1683 30.6786 28.5995 42.715C28.3624 42.7057 28.124 42.7009 27.8845 42.7009C18.4408 42.7009 10.7852 50.0577 10.7852 59.1327Z" fill="#82E85E"/>
</mask>
<g mask="url(#mask3_79_8001)">
<circle cx="76.1321" cy="66.762" r="56.0588" fill="url(#paint9_linear_79_8001)"/>
</g>
<path fill-rule="evenodd" clip-rule="evenodd" d="M59.8315 75.2926C59.8315 71.9847 57.15 69.3032 53.8422 69.3032C50.5344 69.3032 47.8529 71.9847 47.8529 75.2926L47.8529 90.9276L38.8209 81.0692C37.3085 79.4185 34.7444 79.3063 33.0936 80.8187C31.4429 82.331 31.3307 84.8952 32.8431 86.5459L45.1263 99.9529C45.8617 100.756 46.8459 101.195 47.8529 101.26L47.8529 151.622C47.8529 154.929 50.5344 157.611 53.8422 157.611C57.15 157.611 59.8315 154.929 59.8315 151.622L59.8315 75.2926Z" fill="url(#paint10_linear_79_8001)"/>
<defs>
<linearGradient id="paint0_linear_79_8001" x1="129.654" y1="-10.5962" x2="129.654" y2="101.521" gradientUnits="userSpaceOnUse">
<stop stop-color="#56FF85"/>
<stop offset="1" stop-color="#00DC80"/>
</linearGradient>
<linearGradient id="paint1_linear_79_8001" x1="99.3269" y1="48.0039" x2="99.3269" y2="136.312" gradientUnits="userSpaceOnUse">
<stop stop-color="#E4B37A"/>
<stop offset="1" stop-color="#A0886C"/>
</linearGradient>
<linearGradient id="paint2_linear_79_8001" x1="93.3567" y1="96.5498" x2="97.8258" y2="122.078" gradientUnits="userSpaceOnUse">
<stop stop-color="#BBDAFF"/>
<stop offset="1" stop-color="#5498E8"/>
</linearGradient>
<linearGradient id="paint3_linear_79_8001" x1="93.3567" y1="109.95" x2="97.8258" y2="135.478" gradientUnits="userSpaceOnUse">
<stop stop-color="#BBDAFF"/>
<stop offset="1" stop-color="#5498E8"/>
</linearGradient>
<linearGradient id="paint4_linear_79_8001" x1="121.956" y1="91.501" x2="129.848" y2="118.914" gradientUnits="userSpaceOnUse">
<stop stop-color="#BBDAFF"/>
<stop offset="1" stop-color="#5498E8"/>
</linearGradient>
<linearGradient id="paint5_linear_79_8001" x1="179.503" y1="91.501" x2="187.394" y2="118.914" gradientUnits="userSpaceOnUse">
<stop stop-color="#BBDAFF"/>
<stop offset="1" stop-color="#5498E8"/>
</linearGradient>
<linearGradient id="paint6_linear_79_8001" x1="93.3567" y1="127.626" x2="107.062" y2="170.893" gradientUnits="userSpaceOnUse">
<stop stop-color="#BBDAFF"/>
<stop offset="1" stop-color="#5498E8"/>
</linearGradient>
<linearGradient id="paint7_linear_79_8001" x1="53.627" y1="21.772" x2="53.627" y2="127.191" gradientUnits="userSpaceOnUse">
<stop stop-color="#4DFF3E"/>
<stop offset="1" stop-color="#31EA92"/>
</linearGradient>
<linearGradient id="paint8_linear_79_8001" x1="76.1321" y1="10.7031" x2="76.1321" y2="122.821" gradientUnits="userSpaceOnUse">
<stop stop-color="#DBFF8D"/>
<stop offset="1" stop-color="#73FF8A" stop-opacity="0.90625"/>
</linearGradient>
<linearGradient id="paint9_linear_79_8001" x1="76.1321" y1="10.7031" x2="76.1321" y2="122.821" gradientUnits="userSpaceOnUse">
<stop stop-color="#FDFF8D"/>
<stop offset="1" stop-color="#73FF8A" stop-opacity="0.90625"/>
</linearGradient>
<linearGradient id="paint10_linear_79_8001" x1="45.805" y1="69.3032" x2="45.805" y2="157.611" gradientUnits="userSpaceOnUse">
<stop stop-color="#FFC580"/>
<stop offset="1" stop-color="#976E3F"/>
</linearGradient>
</defs>
</svg>
