<svg width="240" height="176" viewBox="0 0 240 176" fill="none" xmlns="http://www.w3.org/2000/svg">
<path fill-rule="evenodd" clip-rule="evenodd" d="M20.2918 105.216C20.8574 107.56 22.1486 109.591 23.9619 111.22C16.5304 117.573 12.7298 126.355 14.7686 134.805C17.6945 146.933 31.6389 154.201 47.0694 152.312C52.8587 156.317 62.6222 157.635 72.8891 155.166C81.8281 153.016 89.1178 148.484 93.0505 143.257C96.9058 143.297 100.917 142.856 104.963 141.883C125.021 137.059 138.344 120.975 134.72 105.957C132.228 95.6245 122.362 88.4892 109.917 86.614C110.57 84.3185 110.664 81.9333 110.097 79.5857C107.902 70.4863 96.614 65.3965 84.8848 68.2174C84.4678 68.3177 84.0559 68.4266 83.6493 68.5439C77.3722 62.3318 67.6524 59.4622 57.8704 61.8148C45.601 64.7656 37.1656 74.9864 36.8114 86.1424C36.5436 86.1982 36.2754 86.2584 36.0069 86.3229C25.4243 88.8681 18.3884 97.3268 20.2918 105.216Z" fill="url(#paint0_linear_260_2322)"/>
<mask id="mask0_260_2322" style="mask-type:alpha" maskUnits="userSpaceOnUse" x="14" y="60" width="122" height="97">
<path fill-rule="evenodd" clip-rule="evenodd" d="M20.2918 105.216C20.8574 107.56 22.1486 109.591 23.9619 111.22C16.5304 117.573 12.7298 126.355 14.7686 134.805C17.6945 146.933 31.6389 154.201 47.0694 152.312C52.8587 156.317 62.6222 157.635 72.8891 155.166C81.8281 153.016 89.1178 148.484 93.0505 143.257C96.9058 143.297 100.917 142.856 104.963 141.883C125.021 137.059 138.344 120.975 134.72 105.957C132.228 95.6245 122.362 88.4892 109.917 86.614C110.57 84.3185 110.664 81.9333 110.097 79.5857C107.902 70.4863 96.614 65.3965 84.8848 68.2174C84.4678 68.3177 84.0559 68.4266 83.6493 68.5439C77.3722 62.3318 67.6524 59.4622 57.8704 61.8148C45.601 64.7656 37.1656 74.9864 36.8114 86.1424C36.5436 86.1982 36.2754 86.2584 36.0069 86.3229C25.4243 88.8681 18.3884 97.3268 20.2918 105.216Z" fill="#82E85E"/>
</mask>
<g mask="url(#mask0_260_2322)">
<ellipse cx="64.6103" cy="50.1327" rx="64.6103" ry="50.1327" transform="matrix(0.972277 -0.233833 0.234532 0.972108 20.543 60.6113)" fill="url(#paint1_linear_260_2322)"/>
</g>
<mask id="mask1_260_2322" style="mask-type:alpha" maskUnits="userSpaceOnUse" x="14" y="60" width="122" height="93">
<path fill-rule="evenodd" clip-rule="evenodd" d="M23.9619 111.22C22.1486 109.591 20.8574 107.56 20.2918 105.216C18.3884 97.3268 25.4243 88.8681 36.0069 86.3229C36.2754 86.2584 36.5436 86.1982 36.8114 86.1424C37.1656 74.9864 45.601 64.7656 57.8704 61.8148C67.6524 59.4622 77.3722 62.3318 83.6493 68.5439C84.0559 68.4266 84.4678 68.3177 84.8848 68.2174C96.614 65.3965 107.902 70.4863 110.097 79.5857C110.664 81.9333 110.57 84.3185 109.917 86.614C122.362 88.4892 132.228 95.6245 134.72 105.957C138.344 120.975 125.021 137.059 104.963 141.883C92.9439 144.774 81.234 142.965 72.9987 137.82C68.4921 144.14 60.9532 149.249 51.7248 151.469C34.5323 155.604 17.9865 148.143 14.7686 134.805C12.7298 126.355 16.5304 117.573 23.9619 111.22Z" fill="#82E85E"/>
</mask>
<g mask="url(#mask1_260_2322)">
<ellipse cx="64.6103" cy="50.1327" rx="64.6103" ry="50.1327" transform="matrix(0.972277 -0.233833 0.234532 0.972108 20.543 60.6113)" fill="url(#paint2_linear_260_2322)"/>
</g>
<path d="M95.0734 134.831C95.1954 134.796 95.3233 134.788 95.4489 134.806L237.602 155.486C238.476 155.613 238.659 156.794 237.864 157.18L220.828 165.457C220.693 165.522 220.543 165.553 220.393 165.546L26.7131 156.169C25.6991 156.12 25.5339 154.689 26.5102 154.41L95.0734 134.831Z" fill="#8F8F8F"/>
<path d="M67.6915 142.684L57.9573 145.604C57.8523 145.636 57.8672 145.789 57.9764 145.8L227.483 162.204C227.502 162.206 227.52 162.202 227.537 162.194L231.316 160.364C231.406 160.32 231.383 160.185 231.283 160.174L67.7309 142.68C67.7176 142.679 67.7042 142.68 67.6915 142.684Z" fill="white"/>
<ellipse cx="119.477" cy="153.679" rx="17.2267" ry="3.62911" fill="url(#paint3_linear_260_2322)"/>
<ellipse cx="157.972" cy="150.05" rx="11.5438" ry="2.48445" fill="url(#paint4_linear_260_2322)"/>
<ellipse cx="162.364" cy="22.5466" rx="11.5874" ry="11.5691" fill="url(#paint5_linear_260_2322)"/>
<ellipse cx="167.924" cy="25.3546" rx="0.853516" ry="0.682813" transform="rotate(-12.8304 167.924 25.3546)" fill="black"/>
<ellipse cx="2.61139" cy="4.49718" rx="2.61139" ry="4.49718" transform="matrix(0.942956 -0.332745 0.33372 0.942734 165.552 16.8755)" fill="white"/>
<mask id="mask2_260_2322" style="mask-type:alpha" maskUnits="userSpaceOnUse" x="166" y="15" width="7" height="10">
<ellipse cx="2.61139" cy="4.49718" rx="2.61139" ry="4.49718" transform="matrix(0.942956 -0.332745 0.33372 0.942734 165.551 16.8755)" fill="white"/>
</mask>
<g mask="url(#mask2_260_2322)">
<ellipse cx="2.24837" cy="2.96493" rx="2.24837" ry="2.96493" transform="matrix(0.979685 -0.200934 0.201513 0.979405 168.037 19.1836)" fill="black"/>
</g>
<ellipse cx="2.61139" cy="4.49718" rx="2.61139" ry="4.49718" transform="matrix(0.942956 -0.332745 0.33372 0.942734 158.429 19.3848)" fill="white"/>
<mask id="mask3_260_2322" style="mask-type:alpha" maskUnits="userSpaceOnUse" x="159" y="18" width="7" height="10">
<ellipse cx="2.61139" cy="4.49718" rx="2.61139" ry="4.49718" transform="matrix(0.942956 -0.332745 0.33372 0.942734 158.429 19.3848)" fill="white"/>
</mask>
<g mask="url(#mask3_260_2322)">
<ellipse cx="2.24808" cy="2.96531" rx="2.24808" ry="2.96531" transform="matrix(1.00026 0.00295342 -0.00296116 0.999726 161.476 21.1738)" fill="black"/>
</g>
<path d="M170.399 12.808C169.762 11.428 168.86 10.1866 167.743 9.15485C166.626 8.12306 165.317 7.32103 163.889 6.79454C162.462 6.26805 160.944 6.02742 159.424 6.08639C157.903 6.14536 156.409 6.50277 155.027 7.13821C153.645 7.77366 152.402 8.67469 151.368 9.78988C150.335 10.9051 149.532 12.2125 149.004 13.6377C148.477 15.0628 148.236 16.5777 148.295 18.0959C148.354 19.614 148.712 21.1057 149.348 22.4857L159.874 17.6468L170.399 12.808Z" fill="url(#paint6_linear_260_2322)"/>
<path d="M167.285 16.0812L149.19 22.5462L169.941 12.6312L178.508 9.88489C178.612 9.85153 178.674 9.99796 178.578 10.0495L167.297 16.0759C167.293 16.078 167.289 16.0798 167.285 16.0812Z" fill="#FFE03E"/>
<path d="M166.297 74.7733L136.8 69.6846L140.162 89.3905L133.547 103.25L148.295 110.937L166.297 74.7733Z" fill="url(#paint7_linear_260_2322)"/>
<path d="M127.695 38.8652C123.441 39.8453 114.738 41.9524 113.952 42.5404C108.456 45.4806 107.977 50.2687 108.425 52.2953C110.267 59.9095 114.103 75.9441 114.705 79.169C115.458 83.2 115.715 83.7599 122.556 82.4162C128.029 81.3413 127.752 78.2358 126.93 76.8175C127.491 76.7802 128.59 76.1681 128.5 74.0182C128.41 71.8683 126.453 71.5746 125.486 71.6965L120.824 51.6057L130.149 49.8906L127.695 38.8652Z" fill="url(#paint8_linear_260_2322)"/>
<path d="M172.46 53.6933C174.812 57.3654 179.719 64.8448 180.538 65.3862C185.155 69.5702 189.834 68.4142 191.596 67.3132C198.162 63.0262 212.005 54.0401 214.846 52.3919C218.397 50.3316 218.839 49.9026 215.277 43.9186C212.427 39.1314 209.589 40.4332 208.527 41.6825C208.304 41.1676 207.357 40.3392 205.359 41.1447C203.36 41.9502 203.74 43.8893 204.179 44.7582L186.786 55.8826L182.04 47.6869L172.46 53.6933Z" fill="url(#paint9_linear_260_2322)"/>
<path d="M152.389 123.398C157.884 112.163 168.815 90.0617 169.643 88.0601C171.017 88.5771 176.401 89.7151 178.339 93.1374C180.828 97.5327 178.54 103.027 177.333 105.609L165.049 130.238L152.389 123.398Z" fill="url(#paint10_linear_260_2322)"/>
<path d="M147.75 110.671L134.269 103.674L119.343 133.35L132.722 140.345L147.75 110.671Z" fill="url(#paint11_linear_260_2322)"/>
<path d="M113.59 143.012L118.774 132.768L133.463 140.209L132.059 143.012C132.959 144.199 135.04 146.938 136.163 148.404C137.287 149.871 135.695 152.61 134.759 153.796L113.59 143.012Z" fill="url(#paint12_linear_260_2322)"/>
<path d="M146.273 133.415L151.687 123.17L167.025 130.611L165.559 133.415C166.498 134.601 168.671 137.34 169.844 138.807C171.017 140.273 169.355 143.012 168.378 144.199L146.273 133.415Z" fill="url(#paint13_linear_260_2322)"/>
<path d="M143.826 35.7567C139.186 35.9421 130.855 37.1117 127.401 38.0896L129.904 51.0435L140.587 48.509L136.866 69.8858L166.254 74.9821L168.716 47.9978L171.849 54.4437L183.005 47.4291C182.482 45.865 180.868 43.9692 179.015 40.1576C177.118 36.2558 172.184 35.4992 169.58 35.7567C162.929 35.6794 148.467 35.5712 143.826 35.7567Z" fill="url(#paint14_linear_260_2322)"/>
<path d="M136.701 86.831C129.616 81.6551 133.749 73.2434 136.701 69.6846L170.441 87.8611L163.312 102.311C157.624 99.3636 143.787 92.0069 136.701 86.831Z" fill="url(#paint15_linear_260_2322)"/>
<path fill-rule="evenodd" clip-rule="evenodd" d="M76.0605 109.651C76.0605 110.867 76.3641 112.015 76.9022 113.028C73.5062 115.266 71.2637 119.124 71.2637 123.508C71.2637 129.799 75.8824 135.008 81.901 135.901C83.7282 138.547 87.3063 140.344 91.4212 140.344C95.004 140.344 98.1798 138.982 100.147 136.883C101.604 137.357 103.164 137.614 104.785 137.614C112.825 137.614 119.342 131.298 119.342 123.508C119.342 118.148 116.257 113.486 111.714 111.099C112.171 110.05 112.425 108.892 112.425 107.674C112.425 102.953 108.614 99.1267 103.913 99.1267C103.745 99.1267 103.579 99.1316 103.414 99.1411C101.604 95.3552 98.1842 92.8022 94.2636 92.8022C89.3458 92.8022 85.216 96.8189 84.0622 102.247C83.9556 102.243 83.8484 102.241 83.7407 102.241C79.4991 102.241 76.0605 105.559 76.0605 109.651Z" fill="#13BF6C"/>
<mask id="mask4_260_2322" style="mask-type:alpha" maskUnits="userSpaceOnUse" x="71" y="92" width="49" height="49">
<path fill-rule="evenodd" clip-rule="evenodd" d="M76.0605 109.651C76.0605 110.867 76.3641 112.015 76.9022 113.028C73.5062 115.266 71.2637 119.124 71.2637 123.508C71.2637 129.799 75.8824 135.008 81.901 135.901C83.7282 138.547 87.3063 140.344 91.4212 140.344C95.004 140.344 98.1798 138.982 100.147 136.883C101.604 137.357 103.164 137.614 104.785 137.614C112.825 137.614 119.342 131.298 119.342 123.508C119.342 118.148 116.257 113.486 111.714 111.099C112.171 110.05 112.425 108.892 112.425 107.674C112.425 102.953 108.614 99.1267 103.913 99.1267C103.745 99.1267 103.579 99.1316 103.414 99.1411C101.604 95.3552 98.1842 92.8022 94.2636 92.8022C89.3458 92.8022 85.216 96.8189 84.0622 102.247C83.9556 102.243 83.8484 102.241 83.7407 102.241C79.4991 102.241 76.0605 105.559 76.0605 109.651Z" fill="#82E85E"/>
</mask>
<g mask="url(#mask4_260_2322)">
<ellipse cx="105.411" cy="113.092" rx="25.1788" ry="25.2815" fill="#00DC80"/>
</g>
<mask id="mask5_260_2322" style="mask-type:alpha" maskUnits="userSpaceOnUse" x="71" y="92" width="49" height="49">
<path fill-rule="evenodd" clip-rule="evenodd" d="M76.0605 109.651C76.0605 110.867 76.3641 112.015 76.9022 113.028C73.5062 115.266 71.2637 119.124 71.2637 123.508C71.2637 129.799 75.8824 135.008 81.901 135.901C83.7282 138.547 87.3063 140.344 91.4212 140.344C95.004 140.344 98.1798 138.982 100.147 136.883C101.604 137.357 103.164 137.614 104.785 137.614C112.825 137.614 119.342 131.298 119.342 123.508C119.342 118.148 116.257 113.486 111.714 111.099C112.171 110.05 112.425 108.892 112.425 107.674C112.425 102.953 108.614 99.1267 103.913 99.1267C103.745 99.1267 103.579 99.1316 103.414 99.1411C101.604 95.3552 98.1842 92.8022 94.2636 92.8022C89.3458 92.8022 85.216 96.8189 84.0622 102.247C83.9556 102.243 83.8484 102.241 83.7407 102.241C79.4991 102.241 76.0605 105.559 76.0605 109.651Z" fill="#82E85E"/>
</mask>
<g mask="url(#mask5_260_2322)">
<ellipse cx="105.411" cy="113.092" rx="25.1788" ry="25.2815" fill="url(#paint16_linear_260_2322)"/>
</g>
<path d="M122.392 33.1946C120.875 33.5641 119.322 33.8865 117.922 33.2576C116.521 32.6287 115.732 31.3475 116.16 30.3959C116.587 29.4443 118.069 29.1827 119.469 29.8116C120.87 30.4405 121.767 32.1247 122.392 33.1946Z" fill="#C3F7F1"/>
<path d="M123.889 28.9229C122.903 28.932 121.9 28.907 121.129 28.3185C120.358 27.7299 120.057 26.8278 120.456 26.3036C120.856 25.7794 121.806 25.8316 122.577 26.4202C123.349 27.0088 123.659 28.1744 123.889 28.9229Z" fill="#C3F7F1"/>
<defs>
<linearGradient id="paint0_linear_260_2322" x1="60.4642" y1="61.191" x2="82.5089" y2="152.853" gradientUnits="userSpaceOnUse">
<stop stop-color="#4DFF3E"/>
<stop offset="1" stop-color="#31EA92"/>
</linearGradient>
<linearGradient id="paint1_linear_260_2322" x1="64.6103" y1="0" x2="64.6103" y2="100.265" gradientUnits="userSpaceOnUse">
<stop stop-color="#DBFF8D"/>
<stop offset="1" stop-color="#73FF8A" stop-opacity="0.90625"/>
</linearGradient>
<linearGradient id="paint2_linear_260_2322" x1="64.6103" y1="0" x2="64.6103" y2="100.265" gradientUnits="userSpaceOnUse">
<stop stop-color="#FDFF8D"/>
<stop offset="1" stop-color="#73FF8A" stop-opacity="0.90625"/>
</linearGradient>
<linearGradient id="paint3_linear_260_2322" x1="136.703" y1="153.679" x2="90.761" y2="147.262" gradientUnits="userSpaceOnUse">
<stop stop-color="#404040"/>
<stop offset="1" stop-color="#878787"/>
</linearGradient>
<linearGradient id="paint4_linear_260_2322" x1="169.515" y1="150.05" x2="138.704" y2="145.838" gradientUnits="userSpaceOnUse">
<stop stop-color="#252525"/>
<stop offset="1" stop-color="#858585"/>
</linearGradient>
<linearGradient id="paint5_linear_260_2322" x1="162.364" y1="10.9775" x2="162.364" y2="34.1157" gradientUnits="userSpaceOnUse">
<stop stop-color="#FFCCCC"/>
<stop offset="1" stop-color="#FFE6E6"/>
</linearGradient>
<linearGradient id="paint6_linear_260_2322" x1="155.027" y1="7.13821" x2="164.695" y2="28.1671" gradientUnits="userSpaceOnUse">
<stop stop-color="#FFE03D"/>
<stop offset="1" stop-color="white"/>
<stop offset="1" stop-color="#FFF8D5"/>
</linearGradient>
<linearGradient id="paint7_linear_260_2322" x1="149.922" y1="69.6846" x2="149.922" y2="110.937" gradientUnits="userSpaceOnUse">
<stop stop-color="#3F5E6F"/>
<stop offset="1" stop-color="#434343"/>
</linearGradient>
<linearGradient id="paint8_linear_260_2322" x1="119.223" y1="38.8652" x2="119.223" y2="83.0704" gradientUnits="userSpaceOnUse">
<stop stop-color="#FFC6C6"/>
<stop offset="1" stop-color="#FFE9E9"/>
</linearGradient>
<linearGradient id="paint9_linear_260_2322" x1="175.302" y1="61.6618" x2="216.997" y2="46.7927" gradientUnits="userSpaceOnUse">
<stop stop-color="#FFC6C6"/>
<stop offset="1" stop-color="#FFE9E9"/>
</linearGradient>
<linearGradient id="paint10_linear_260_2322" x1="166.876" y1="87.3421" x2="166.876" y2="130.788" gradientUnits="userSpaceOnUse">
<stop stop-color="#FFCFCF"/>
<stop offset="1" stop-color="#FFE9E9"/>
</linearGradient>
<linearGradient id="paint11_linear_260_2322" x1="132.835" y1="103.169" x2="132.835" y2="140.345" gradientUnits="userSpaceOnUse">
<stop stop-color="#FFCCCC"/>
<stop offset="1" stop-color="#FFEFEF"/>
</linearGradient>
<linearGradient id="paint12_linear_260_2322" x1="125.07" y1="132.768" x2="125.07" y2="153.796" gradientUnits="userSpaceOnUse">
<stop stop-color="#FFE03D"/>
<stop offset="1" stop-color="#FFFDF5"/>
</linearGradient>
<linearGradient id="paint13_linear_260_2322" x1="158.261" y1="123.17" x2="158.261" y2="144.199" gradientUnits="userSpaceOnUse">
<stop stop-color="#FFE03D"/>
<stop offset="1" stop-color="#FFFDF5"/>
</linearGradient>
<linearGradient id="paint14_linear_260_2322" x1="154.847" y1="35.6543" x2="175.173" y2="72.8053" gradientUnits="userSpaceOnUse">
<stop stop-color="#00A3FF"/>
<stop offset="1" stop-color="white"/>
</linearGradient>
<linearGradient id="paint15_linear_260_2322" x1="151.27" y1="69.6846" x2="151.27" y2="102.143" gradientUnits="userSpaceOnUse">
<stop stop-color="#3F5E6F"/>
<stop offset="1" stop-color="#040404"/>
</linearGradient>
<linearGradient id="paint16_linear_260_2322" x1="105.411" y1="87.8105" x2="105.411" y2="138.374" gradientUnits="userSpaceOnUse">
<stop stop-color="#56FF85"/>
<stop offset="1" stop-color="#00DC80"/>
</linearGradient>
</defs>
</svg>
