<svg width="127" height="24" viewBox="0 0 127 24" fill="none" xmlns="http://www.w3.org/2000/svg">
<path d="M7.98918 7.297C8.07718 7.407 8.12118 7.55 8.12118 7.726C8.14318 7.88 8.12118 8.012 8.05518 8.122C7.94518 8.364 7.75818 8.452 7.49418 8.386C7.03218 8.276 6.54818 8.232 6.04218 8.254C5.53618 8.276 5.03018 8.474 4.52418 8.848C4.01818 9.222 3.62218 9.772 3.33618 10.498C3.05018 11.202 2.90718 11.939 2.90718 12.709C2.90718 13.457 3.08318 14.106 3.43518 14.656C3.80918 15.184 4.28218 15.569 4.85418 15.811C5.20618 15.965 5.60218 16.053 6.04218 16.075C6.48218 16.097 6.92218 16.086 7.36218 16.042C7.82418 15.976 8.27518 15.888 8.71518 15.778C9.15518 15.646 9.57318 15.503 9.96918 15.349C10.1012 15.305 10.2222 15.316 10.3322 15.382C10.4642 15.448 10.5522 15.536 10.5962 15.646C10.7062 15.932 10.6512 16.218 10.4312 16.504C10.1672 16.79 9.81518 17.043 9.37518 17.263C8.93518 17.483 8.45118 17.659 7.92318 17.791C7.39518 17.923 6.85618 18 6.30618 18.022C5.75618 18.022 5.23918 17.956 4.75518 17.824C4.07318 17.648 3.49018 17.395 3.00618 17.065C2.54418 16.713 2.15918 16.317 1.85118 15.877C1.54318 15.415 1.31218 14.931 1.15818 14.425C1.00418 13.897 0.916176 13.358 0.894176 12.808C0.850176 11.488 1.10318 10.3 1.65318 9.244C2.22518 8.188 3.01718 7.407 4.02918 6.901C4.77718 6.527 5.52518 6.384 6.27318 6.472C7.04318 6.538 7.61518 6.813 7.98918 7.297ZM20.7519 7.165C20.8399 7.781 20.9059 8.441 20.9499 9.145C21.0159 9.827 21.0599 10.52 21.0819 11.224C21.1259 11.928 21.1479 12.61 21.1479 13.27C21.1479 13.93 21.1369 14.524 21.1149 15.052C21.8189 15.536 22.2369 15.965 22.3689 16.339C22.5229 16.713 22.5449 17.043 22.4349 17.329C22.3029 17.725 22.0609 17.934 21.7089 17.956C21.3789 17.956 20.9939 17.835 20.5539 17.593C20.2459 17.813 19.8939 18.055 19.4979 18.319C19.1019 18.561 18.6839 18.803 18.2439 19.045C17.8039 19.265 17.3639 19.463 16.9239 19.639C16.4839 19.815 16.0769 19.936 15.7029 20.002C14.9989 20.112 14.3609 19.98 13.7889 19.606C13.2389 19.232 12.8649 18.671 12.6669 17.923C12.5349 17.417 12.5019 16.9 12.5679 16.372C12.6339 15.822 12.7989 15.305 13.0629 14.821C13.3269 14.315 13.6789 13.864 14.1189 13.468C14.5809 13.072 15.1199 12.764 15.7359 12.544C15.8899 12.478 16.0989 12.423 16.3629 12.379C16.6489 12.335 16.9349 12.324 17.2209 12.346C17.5289 12.346 17.8369 12.401 18.1449 12.511C18.4529 12.621 18.7389 12.808 19.0029 13.072C19.0029 12.698 18.9919 12.291 18.9699 11.851C18.9699 11.389 18.9589 10.927 18.9369 10.465C18.9149 10.003 18.8819 9.574 18.8379 9.178C18.8159 8.76 18.7829 8.408 18.7389 8.122C18.6949 7.792 18.5629 7.594 18.3429 7.528C18.1449 7.44 17.8919 7.451 17.5839 7.561C17.0559 7.737 16.4399 8.078 15.7359 8.584C15.0319 9.09 14.3609 9.629 13.7229 10.201C13.5249 10.399 13.2939 10.487 13.0299 10.465C12.7879 10.443 12.5789 10.344 12.4029 10.168C12.2269 9.992 12.1279 9.794 12.1059 9.574C12.0839 9.332 12.1719 9.079 12.3699 8.815C12.7439 8.419 13.1619 8.012 13.6239 7.594C14.0859 7.176 14.5699 6.802 15.0759 6.472C15.5819 6.12 16.0989 5.834 16.6269 5.614C17.1549 5.394 17.6829 5.273 18.2109 5.251C18.9809 5.229 19.5749 5.405 19.9929 5.779C20.4109 6.131 20.6639 6.593 20.7519 7.165ZM16.9239 14.26C16.6379 14.326 16.3299 14.469 15.9999 14.689C15.6919 14.887 15.4059 15.14 15.1419 15.448C14.8999 15.734 14.7129 16.064 14.5809 16.438C14.4709 16.79 14.4709 17.142 14.5809 17.494C14.6249 17.626 14.7129 17.725 14.8449 17.791C14.9989 17.857 15.1639 17.868 15.3399 17.824C15.8679 17.714 16.4619 17.505 17.1219 17.197C17.8039 16.867 18.3429 16.515 18.7389 16.141C18.7389 16.009 18.6729 15.844 18.5409 15.646C18.4089 15.426 18.2549 15.217 18.0789 15.019C17.9029 14.799 17.7049 14.612 17.4849 14.458C17.2869 14.304 17.0999 14.238 16.9239 14.26ZM34.2283 7.99C33.8323 8.21 33.4143 8.441 32.9743 8.683C32.5563 8.925 32.1273 9.211 31.6873 9.541C31.2693 9.849 30.8623 10.223 30.4663 10.663C30.0923 11.081 29.7513 11.587 29.4433 12.181C29.0033 13.017 28.7063 13.875 28.5523 14.755C28.3983 15.613 28.2993 16.46 28.2553 17.296C28.2553 17.692 28.1563 18.099 27.9583 18.517C27.7823 18.913 27.5293 19.111 27.1993 19.111C26.7813 19.111 26.4403 18.902 26.1763 18.484C25.9343 18.044 25.7693 17.626 25.6813 17.23C25.3073 15.668 24.9993 14.128 24.7573 12.61C24.5153 11.07 24.3063 9.541 24.1303 8.023C24.1303 7.715 24.2183 7.517 24.3943 7.429C24.5923 7.341 24.8123 7.308 25.0543 7.33C25.3183 7.352 25.5713 7.418 25.8133 7.528C26.0553 7.638 26.1983 7.814 26.2423 8.056C26.3303 8.87 26.4403 9.728 26.5723 10.63C26.7043 11.51 26.8363 12.269 26.9683 12.907C27.0563 12.159 27.2983 11.433 27.6943 10.729C28.0903 10.025 28.5743 9.387 29.1463 8.815C29.7403 8.243 30.4003 7.759 31.1263 7.363C31.8743 6.967 32.6333 6.703 33.4033 6.571C33.7333 6.527 34.0083 6.527 34.2283 6.571C34.4483 6.615 34.6023 6.692 34.6903 6.802C34.7783 6.912 34.7893 7.088 34.7233 7.33C34.6793 7.572 34.5143 7.792 34.2283 7.99ZM41.8307 22.972C41.8087 23.214 41.6987 23.434 41.5007 23.632C41.3027 23.852 41.0827 23.951 40.8407 23.929C40.4667 23.907 40.1807 23.764 39.9827 23.5C39.7847 23.236 39.6857 23.016 39.6857 22.84C39.6857 22.004 39.6637 21.135 39.6197 20.233C39.5757 19.309 39.5207 18.363 39.4547 17.395C39.1687 17.439 38.9047 17.417 38.6627 17.329C38.4427 17.219 38.2887 17.054 38.2007 16.834C38.0467 16.46 38.0687 16.13 38.2667 15.844C38.4647 15.558 38.7837 15.283 39.2237 15.019C39.1137 14.205 39.0037 13.402 38.8937 12.61C38.8057 11.818 38.7067 11.048 38.5967 10.3C38.5747 10.168 38.5857 10.047 38.6297 9.937C38.6737 9.827 38.7287 9.728 38.7947 9.64C38.8607 9.53 38.9817 9.431 39.1577 9.343C39.4437 9.233 39.7627 9.321 40.1147 9.607C40.4887 9.893 40.7417 10.256 40.8737 10.696C40.9397 11.114 41.0057 11.598 41.0717 12.148C41.1597 12.676 41.2367 13.259 41.3027 13.897C41.7647 13.611 42.1937 13.303 42.5897 12.973C43.0077 12.643 43.3597 12.291 43.6457 11.917C43.9537 11.543 44.1847 11.158 44.3387 10.762C44.4927 10.344 44.5367 9.915 44.4707 9.475C44.4267 9.101 44.2617 8.771 43.9757 8.485C43.6897 8.177 43.2387 8.012 42.6227 7.99C42.0727 7.968 41.5227 8.012 40.9727 8.122C40.4447 8.232 39.9167 8.375 39.3887 8.551C38.8827 8.727 38.3767 8.936 37.8707 9.178C37.3867 9.42 36.9137 9.662 36.4517 9.904C36.1437 10.08 35.8357 10.157 35.5277 10.135C35.2417 10.091 35.0547 9.981 34.9667 9.805C34.7687 9.365 34.7797 8.969 34.9997 8.617C35.2417 8.265 35.6047 7.935 36.0887 7.627C36.5067 7.385 37.0017 7.143 37.5737 6.901C38.1677 6.637 38.7837 6.417 39.4217 6.241C40.0817 6.043 40.7417 5.911 41.4017 5.845C42.0837 5.757 42.7327 5.768 43.3487 5.878C43.9647 5.966 44.5147 6.175 44.9987 6.505C45.5047 6.813 45.9117 7.275 46.2197 7.891C46.5937 8.903 46.6927 9.838 46.5167 10.696C46.3627 11.532 46.0327 12.302 45.5267 13.006C45.0427 13.688 44.4377 14.315 43.7117 14.887C43.0077 15.437 42.2927 15.932 41.5667 16.372C41.6767 17.56 41.7537 18.737 41.7977 19.903C41.8417 21.069 41.8527 22.092 41.8307 22.972ZM56.8073 11.62C55.9493 12.126 55.0253 12.522 54.0353 12.808C53.0453 13.072 51.9783 13.204 50.8343 13.204C50.8783 13.974 51.0983 14.59 51.4943 15.052C51.8903 15.492 52.3853 15.756 52.9793 15.844C53.3313 15.888 53.6833 15.877 54.0353 15.811C54.4093 15.745 54.7503 15.646 55.0583 15.514C55.3883 15.36 55.6853 15.195 55.9493 15.019C56.2133 14.843 56.4443 14.667 56.6423 14.491C56.8403 14.315 57.0493 14.205 57.2693 14.161C57.4893 14.095 57.6543 14.084 57.7643 14.128C58.0723 14.238 58.1823 14.568 58.0943 15.118C57.7423 15.822 57.2363 16.427 56.5763 16.933C55.9163 17.417 55.1793 17.725 54.3653 17.857C53.6613 17.989 52.9353 17.956 52.1873 17.758C51.4393 17.56 50.7683 17.175 50.1743 16.603C49.6683 16.097 49.2833 15.503 49.0193 14.821C48.7553 14.139 48.5903 13.435 48.5243 12.709C48.4583 12.027 48.5133 11.378 48.6893 10.762C48.8873 10.146 49.1843 9.607 49.5803 9.145C49.9763 8.661 50.4713 8.265 51.0653 7.957C51.6593 7.649 52.3523 7.473 53.1443 7.429C54.0903 7.363 54.9483 7.539 55.7183 7.957C56.4883 8.375 57.0273 8.958 57.3353 9.706C57.5113 10.124 57.5553 10.487 57.4673 10.795C57.4013 11.103 57.1813 11.378 56.8073 11.62ZM53.0123 9.376C52.7923 9.42 52.5503 9.497 52.2863 9.607C52.0443 9.717 51.8133 9.86 51.5933 10.036C51.3953 10.19 51.2083 10.377 51.0323 10.597C50.8783 10.795 50.7903 11.026 50.7683 11.29C51.1423 11.29 51.5493 11.257 51.9893 11.191C52.4513 11.125 52.8913 11.048 53.3093 10.96C53.7493 10.85 54.1453 10.729 54.4973 10.597C54.8713 10.465 55.1793 10.322 55.4213 10.168C55.2453 9.75 54.9153 9.497 54.4313 9.409C53.9693 9.299 53.4963 9.288 53.0123 9.376ZM75.2166 2.644C75.1506 2.248 75.1726 1.885 75.2826 1.555C75.4146 1.225 75.6676 1.038 76.0416 0.993999C76.3716 0.949999 76.6576 1.038 76.8996 1.258C77.1636 1.478 77.3286 1.764 77.3946 2.116C77.8346 4.646 78.2416 7.165 78.6156 9.673C79.0116 12.159 79.3636 14.601 79.6716 16.999C79.7596 17.637 79.7156 18.077 79.5396 18.319C79.3636 18.539 79.1546 18.704 78.9126 18.814C78.6486 18.924 78.3956 18.924 78.1536 18.814C77.9336 18.704 77.7906 18.506 77.7246 18.22L77.6916 18.022L77.5596 18.055C76.8336 18.319 76.0746 18.473 75.2826 18.517C74.4906 18.539 73.7316 18.44 73.0056 18.22C72.2796 18 71.6306 17.648 71.0586 17.164C70.5086 16.658 70.1126 16.02 69.8706 15.25C69.3426 13.556 69.6726 12.016 70.8606 10.63C71.3666 10.058 71.9936 9.541 72.7416 9.079C73.4896 8.617 74.3916 8.254 75.4476 7.99L76.0416 7.858L75.2166 2.644ZM71.8836 14.425C72.0156 14.953 72.2576 15.36 72.6096 15.646C72.9616 15.932 73.3796 16.13 73.8636 16.24C74.3476 16.328 74.8646 16.339 75.4146 16.273C75.9646 16.207 76.5036 16.086 77.0316 15.91L77.3286 15.811L76.4046 10.003L75.7446 10.168C75.2826 10.3 74.7876 10.509 74.2596 10.795C73.7536 11.059 73.3026 11.378 72.9066 11.752C72.5106 12.126 72.2026 12.544 71.9826 13.006C71.7846 13.468 71.7516 13.941 71.8836 14.425ZM86.9785 5.911C86.9345 6.131 86.7805 6.252 86.5165 6.274C86.2525 6.296 86.0325 6.307 85.8565 6.307C85.3065 6.329 84.7345 6.384 84.1405 6.472C83.5685 6.56 82.9635 6.692 82.3255 6.868C82.0615 6.956 81.7755 6.923 81.4675 6.769C81.1595 6.615 80.9725 6.307 80.9065 5.845C80.9065 5.669 80.9725 5.526 81.1045 5.416C81.2365 5.306 81.3905 5.207 81.5665 5.119C81.8525 4.987 82.1935 4.877 82.5895 4.789C82.9855 4.679 83.3815 4.602 83.7775 4.558C84.1955 4.514 84.5915 4.503 84.9655 4.525C85.3395 4.525 85.6475 4.558 85.8895 4.624C86.2415 4.734 86.5165 4.899 86.7145 5.119C86.9345 5.339 87.0225 5.603 86.9785 5.911ZM86.2195 16.9C86.3735 17.252 86.4505 17.637 86.4505 18.055C86.4725 18.451 86.3625 18.726 86.1205 18.88C85.8125 19.078 85.4825 19.067 85.1305 18.847C84.7785 18.627 84.5145 18.33 84.3385 17.956C84.0965 17.494 83.9095 16.933 83.7775 16.273C83.6455 15.591 83.5465 14.92 83.4805 14.26C83.4145 13.6 83.3705 12.984 83.3485 12.412C83.3485 11.84 83.3485 11.411 83.3485 11.125C83.3705 10.817 83.4585 10.531 83.6125 10.267C83.7665 10.003 83.9645 9.849 84.2065 9.805C84.6025 9.827 84.9215 10.014 85.1635 10.366C85.4055 10.696 85.5155 11.114 85.4935 11.62C85.4935 12.016 85.5045 12.456 85.5265 12.94C85.5485 13.424 85.5925 13.908 85.6585 14.392C85.7245 14.876 85.8015 15.349 85.8895 15.811C85.9775 16.251 86.0875 16.614 86.2195 16.9ZM97.4127 11.62C96.5547 12.126 95.6307 12.522 94.6407 12.808C93.6507 13.072 92.5837 13.204 91.4397 13.204C91.4837 13.974 91.7037 14.59 92.0997 15.052C92.4957 15.492 92.9907 15.756 93.5847 15.844C93.9367 15.888 94.2887 15.877 94.6407 15.811C95.0147 15.745 95.3557 15.646 95.6637 15.514C95.9937 15.36 96.2907 15.195 96.5547 15.019C96.8187 14.843 97.0497 14.667 97.2477 14.491C97.4457 14.315 97.6547 14.205 97.8747 14.161C98.0947 14.095 98.2597 14.084 98.3697 14.128C98.6777 14.238 98.7877 14.568 98.6997 15.118C98.3477 15.822 97.8417 16.427 97.1817 16.933C96.5217 17.417 95.7847 17.725 94.9707 17.857C94.2667 17.989 93.5407 17.956 92.7927 17.758C92.0447 17.56 91.3737 17.175 90.7797 16.603C90.2737 16.097 89.8887 15.503 89.6247 14.821C89.3607 14.139 89.1957 13.435 89.1297 12.709C89.0637 12.027 89.1187 11.378 89.2947 10.762C89.4927 10.146 89.7897 9.607 90.1857 9.145C90.5817 8.661 91.0767 8.265 91.6707 7.957C92.2647 7.649 92.9577 7.473 93.7497 7.429C94.6957 7.363 95.5537 7.539 96.3237 7.957C97.0937 8.375 97.6327 8.958 97.9407 9.706C98.1167 10.124 98.1607 10.487 98.0727 10.795C98.0067 11.103 97.7867 11.378 97.4127 11.62ZM93.6177 9.376C93.3977 9.42 93.1557 9.497 92.8917 9.607C92.6497 9.717 92.4187 9.86 92.1987 10.036C92.0007 10.19 91.8137 10.377 91.6377 10.597C91.4837 10.795 91.3957 11.026 91.3737 11.29C91.7477 11.29 92.1547 11.257 92.5947 11.191C93.0567 11.125 93.4967 11.048 93.9147 10.96C94.3547 10.85 94.7507 10.729 95.1027 10.597C95.4767 10.465 95.7847 10.322 96.0267 10.168C95.8507 9.75 95.5207 9.497 95.0367 9.409C94.5747 9.299 94.1017 9.288 93.6177 9.376ZM102.976 8.716C102.998 9.068 103.031 9.508 103.075 10.036C103.141 10.542 103.207 11.081 103.273 11.653C103.339 12.203 103.405 12.753 103.471 13.303C103.559 13.853 103.636 14.359 103.702 14.821C103.944 14.337 104.241 13.743 104.593 13.039C104.945 12.335 105.308 11.664 105.682 11.026C106.078 10.366 106.474 9.816 106.87 9.376C107.288 8.914 107.662 8.683 107.992 8.683C108.344 8.683 108.663 8.859 108.949 9.211C109.257 9.541 109.521 9.948 109.741 10.432C109.961 10.916 110.148 11.433 110.302 11.983C110.478 12.533 110.621 13.017 110.731 13.435C110.819 13.149 110.929 12.83 111.061 12.478C111.215 12.104 111.369 11.73 111.523 11.356C111.699 10.96 111.886 10.575 112.084 10.201C112.304 9.827 112.535 9.497 112.777 9.211C113.063 8.903 113.371 8.683 113.701 8.551C114.031 8.397 114.273 8.32 114.427 8.32C114.625 8.32 114.856 8.386 115.12 8.518C115.406 8.628 115.692 8.782 115.978 8.98C116.264 9.178 116.528 9.42 116.77 9.706C117.034 9.97 117.243 10.245 117.397 10.531C117.705 11.125 117.947 11.774 118.123 12.478C118.321 13.182 118.464 13.853 118.552 14.491C118.64 15.129 118.695 15.701 118.717 16.207C118.761 16.691 118.794 17.032 118.816 17.23C118.816 17.516 118.783 17.736 118.717 17.89C118.651 18.022 118.53 18.132 118.354 18.22C118.112 18.33 117.903 18.374 117.727 18.352C117.551 18.308 117.408 18.231 117.298 18.121C117.188 18.011 117.1 17.89 117.034 17.758C116.968 17.604 116.924 17.472 116.902 17.362C116.836 16.856 116.759 16.339 116.671 15.811C116.605 15.283 116.528 14.777 116.44 14.293C116.352 13.787 116.242 13.325 116.11 12.907C116 12.467 115.879 12.082 115.747 11.752C115.703 11.664 115.626 11.554 115.516 11.422C115.428 11.268 115.318 11.125 115.186 10.993C115.076 10.861 114.966 10.751 114.856 10.663C114.746 10.575 114.669 10.52 114.625 10.498C114.405 10.498 114.174 10.707 113.932 11.125C113.69 11.521 113.459 12.005 113.239 12.577C113.019 13.149 112.81 13.754 112.612 14.392C112.436 15.008 112.304 15.536 112.216 15.976C112.216 16.548 112.106 16.977 111.886 17.263C111.666 17.527 111.435 17.659 111.193 17.659C110.951 17.659 110.687 17.571 110.401 17.395C110.137 17.197 109.961 16.977 109.873 16.735C109.741 16.383 109.598 15.987 109.444 15.547C109.29 15.107 109.125 14.656 108.949 14.194C108.795 13.732 108.63 13.281 108.454 12.841C108.3 12.401 108.146 12.005 107.992 11.653C107.684 12.071 107.376 12.533 107.068 13.039C106.782 13.545 106.496 14.062 106.21 14.59C105.946 15.118 105.682 15.646 105.418 16.174C105.176 16.68 104.945 17.131 104.725 17.527C104.571 17.769 104.406 17.989 104.23 18.187C104.054 18.363 103.845 18.451 103.603 18.451C103.427 18.451 103.24 18.374 103.042 18.22C102.844 18.044 102.657 17.835 102.481 17.593C102.305 17.351 102.14 17.076 101.986 16.768C101.854 16.46 101.755 16.152 101.689 15.844C101.513 14.898 101.359 13.864 101.227 12.742C101.117 11.598 101.007 10.487 100.897 9.409C100.875 9.035 100.919 8.694 101.029 8.386C101.161 8.056 101.403 7.836 101.755 7.726C102.129 7.66 102.415 7.715 102.613 7.891C102.811 8.067 102.932 8.342 102.976 8.716ZM126.706 2.083C126.508 3.051 126.299 4.008 126.079 4.954C125.881 5.9 125.694 6.846 125.518 7.792C125.342 8.738 125.21 9.684 125.122 10.63C125.034 11.576 125.023 12.522 125.089 13.468C125.133 13.71 125.089 13.941 124.957 14.161C124.847 14.381 124.715 14.524 124.561 14.59C124.077 14.766 123.725 14.645 123.505 14.227C123.241 13.105 123.098 11.994 123.076 10.894C123.076 9.794 123.153 8.705 123.307 7.627C123.483 6.549 123.703 5.482 123.967 4.426C124.253 3.348 124.539 2.281 124.825 1.225C124.935 0.784999 125.111 0.542999 125.353 0.498999C125.595 0.454998 125.826 0.476998 126.046 0.564998C126.376 0.674998 126.585 0.894999 126.673 1.225C126.761 1.555 126.772 1.841 126.706 2.083ZM125.386 19.837C125.386 20.079 125.353 20.409 125.287 20.827C125.243 21.223 125.155 21.597 125.023 21.949C124.913 22.301 124.748 22.587 124.528 22.807C124.33 23.027 124.077 23.071 123.769 22.939C123.593 22.829 123.417 22.62 123.241 22.312C123.065 22.004 122.988 21.718 123.01 21.454C123.054 20.926 123.164 20.409 123.34 19.903C123.516 19.397 123.747 19.089 124.033 18.979C124.165 18.935 124.308 18.935 124.462 18.979C124.638 19.023 124.792 19.1 124.924 19.21C125.056 19.298 125.166 19.408 125.254 19.54C125.342 19.65 125.386 19.749 125.386 19.837Z" fill="#00A3FF"/>
</svg>
