<svg width="14" height="18" viewBox="0 0 14 18" fill="none" xmlns="http://www.w3.org/2000/svg">
<path fill-rule="evenodd" clip-rule="evenodd" d="M12.6499 6.66602C12.6499 7.92043 12.2534 9.08223 11.5789 10.0329L6.95806 16.79C6.89916 16.8761 6.77216 16.8763 6.71307 16.7903L2.03954 9.98883C2.02666 9.97031 2.01388 9.95172 2.00121 9.93304L1.97427 9.89384H1.97483C1.35867 8.96989 0.999512 7.85989 0.999512 6.66602C0.999512 3.44885 3.60754 0.84082 6.82471 0.84082C10.0419 0.84082 12.6499 3.44885 12.6499 6.66602ZM6.82445 9.83713C8.64608 9.83713 10.1228 8.36041 10.1228 6.53878C10.1228 4.71715 8.64608 3.24043 6.82445 3.24043C5.00282 3.24043 3.5261 4.71715 3.5261 6.53878C3.5261 8.36041 5.00282 9.83713 6.82445 9.83713Z" fill="#00A3FF"/>
<path d="M11.5789 10.0329L11.5304 9.99856L11.5299 9.9994L11.5789 10.0329ZM6.95806 16.79L6.90902 16.7565L6.95806 16.79ZM6.71307 16.7903L6.66411 16.8239L6.71307 16.7903ZM2.03954 9.98883L2.0885 9.95519L2.08831 9.95491L2.03954 9.98883ZM2.00121 9.93304L2.05036 9.89968L2.05017 9.8994L2.00121 9.93304ZM1.97427 9.89384V9.83444H1.86137L1.92531 9.92748L1.97427 9.89384ZM1.97483 9.89384V9.95324H2.08585L2.02425 9.86088L1.97483 9.89384ZM11.6273 10.0673C12.3087 9.10689 12.7093 7.93314 12.7093 6.66602H12.5905C12.5905 7.90771 12.1981 9.05757 11.5304 9.99856L11.6273 10.0673ZM7.00709 16.8235L11.6279 10.0665L11.5299 9.9994L6.90902 16.7565L7.00709 16.8235ZM6.66411 16.8239C6.74683 16.9443 6.92464 16.9441 7.00709 16.8235L6.90902 16.7565C6.87368 16.8082 6.79748 16.8082 6.76203 16.7566L6.66411 16.8239ZM1.99058 10.0225L6.66411 16.8239L6.76203 16.7566L2.0885 9.95519L1.99058 10.0225ZM1.95205 9.9664C1.96485 9.98526 1.97776 10.0041 1.99078 10.0228L2.08831 9.95491C2.07555 9.93658 2.0629 9.91817 2.05036 9.89968L1.95205 9.9664ZM1.92531 9.92748L1.95225 9.96668L2.05017 9.8994L2.02323 9.8602L1.92531 9.92748ZM1.97483 9.83444H1.97427V9.95324H1.97483V9.83444ZM0.940108 6.66602C0.940108 7.87198 1.30294 8.99339 1.92541 9.9268L2.02425 9.86088C1.4144 8.94638 1.05892 7.8478 1.05892 6.66602H0.940108ZM6.82471 0.781417C3.57473 0.781417 0.940108 3.41604 0.940108 6.66602H1.05892C1.05892 3.48166 3.64035 0.900224 6.82471 0.900224V0.781417ZM12.7093 6.66602C12.7093 3.41604 10.0747 0.781417 6.82471 0.781417V0.900224C10.0091 0.900224 12.5905 3.48166 12.5905 6.66602H12.7093ZM10.0634 6.53878C10.0634 8.3276 8.61327 9.77773 6.82445 9.77773V9.89653C8.67889 9.89653 10.1822 8.39322 10.1822 6.53878H10.0634ZM6.82445 3.29983C8.61327 3.29983 10.0634 4.74996 10.0634 6.53878H10.1822C10.1822 4.68434 8.67889 3.18102 6.82445 3.18102V3.29983ZM3.5855 6.53878C3.5855 4.74996 5.03563 3.29983 6.82445 3.29983V3.18102C4.97001 3.18102 3.46669 4.68434 3.46669 6.53878H3.5855ZM6.82445 9.77773C5.03563 9.77773 3.5855 8.3276 3.5855 6.53878H3.46669C3.46669 8.39322 4.97001 9.89653 6.82445 9.89653V9.77773Z" fill="white" fill-opacity="0.1"/>
</svg>
