<svg width="220" height="176" viewBox="0 0 220 176" fill="none" xmlns="http://www.w3.org/2000/svg">
<rect x="59.3076" y="145.99" width="24.3065" height="20.2418" rx="4.04377" transform="rotate(90 59.3076 145.99)" fill="url(#paint0_linear_260_2210)"/>
<rect x="89.4268" y="145.99" width="24.3065" height="20.2418" rx="4.04377" transform="rotate(90 89.4268 145.99)" fill="url(#paint1_linear_260_2210)"/>
<rect x="119.545" y="145.99" width="24.3065" height="20.2418" rx="4.04377" transform="rotate(90 119.545 145.99)" fill="url(#paint2_linear_260_2210)"/>
<rect x="149.665" y="145.99" width="24.3065" height="20.2418" rx="4.04377" transform="rotate(90 149.665 145.99)" fill="url(#paint3_linear_260_2210)"/>
<rect x="179.785" y="145.99" width="24.3065" height="20.2418" rx="4.04377" transform="rotate(90 179.785 145.99)" fill="url(#paint4_linear_260_2210)"/>
<rect width="166.744" height="6.90187" rx="3.45093" transform="matrix(1 0 0 -1 26.7832 173.747)" fill="url(#paint5_linear_260_2210)"/>
<rect x="39.1562" y="20.6489" width="141.693" height="106.295" rx="4.04377" fill="url(#paint6_linear_260_2210)"/>
<rect width="156.602" height="6.90187" rx="3.45093" transform="matrix(1 0 0 -1 30.9707 20.6489)" fill="url(#paint7_linear_260_2210)"/>
<rect width="156.602" height="6.90187" rx="3.45093" transform="matrix(1 0 0 -1 30.9707 133.846)" fill="url(#paint8_linear_260_2210)"/>
<path d="M39.1563 99.0458C49.5404 99.0458 59.4992 94.9159 66.8418 87.5648C74.1845 80.2137 78.3096 70.2434 78.3096 59.8474C78.3096 49.4513 74.1845 39.481 66.8418 32.1299C59.4992 24.7787 49.5404 20.6489 39.1563 20.6489L39.1563 59.8473L39.1563 99.0458Z" fill="url(#paint9_linear_260_2210)"/>
<path d="M39.1557 97.5524C43.011 97.5524 46.8286 98.3126 50.3905 99.7897C53.9524 101.267 57.1888 103.432 59.9149 106.161C62.6411 108.89 64.8036 112.13 66.2789 115.696C67.7543 119.262 68.5137 123.084 68.5137 126.944L39.1557 126.944L39.1557 97.5524Z" fill="url(#paint10_linear_260_2210)"/>
<path d="M180.849 97.5524C176.994 97.5524 173.176 98.3126 169.614 99.7897C166.053 101.267 162.816 103.432 160.09 106.161C157.364 108.89 155.201 112.13 153.726 115.696C152.251 119.262 151.491 123.084 151.491 126.944L180.849 126.944L180.849 97.5524Z" fill="url(#paint11_linear_260_2210)"/>
<path d="M180.85 99.0458C170.466 99.0458 160.507 94.9159 153.164 87.5648C145.821 80.2137 141.696 70.2434 141.696 59.8474C141.696 49.4513 145.821 39.481 153.164 32.1299C160.507 24.7787 170.465 20.6489 180.85 20.6489L180.85 59.8473L180.85 99.0458Z" fill="url(#paint12_linear_260_2210)"/>
<rect width="20.0758" height="6.90187" rx="3.45093" transform="matrix(1 0 0 -1 35.7363 101.75)" fill="white"/>
<rect width="20.0758" height="6.90187" rx="3.45093" transform="matrix(1 0 0 -1 163.744 101.75)" fill="white"/>
<path fill-rule="evenodd" clip-rule="evenodd" d="M65.8773 20.6489H69.1126H95.8332H95.8337H122.554H125.789H150.893H154.128H179.232H181.153V31.5823H180.849V38.8883C180.849 46.7138 174.505 53.0576 166.68 53.0576C158.854 53.0576 152.511 46.7138 152.511 38.8883V31.5823H152.51V38.8883C152.51 46.7138 146.167 53.0576 138.341 53.0576C130.516 53.0576 124.172 46.7138 124.172 38.8883V31.5823H124.172V38.8883C124.172 46.7138 117.828 53.0576 110.002 53.0576C102.205 53.0576 95.8781 46.7586 95.8334 38.9713C95.7888 46.7586 89.4622 53.0576 81.6644 53.0576C73.8389 53.0576 67.4951 46.7138 67.4951 38.8883V31.5823H67.4948V38.8883C67.4948 46.7138 61.151 53.0576 53.3255 53.0576C45.5001 53.0576 39.1562 46.7138 39.1562 38.8883V31.5823V22.2664V20.6489H40.7738H65.8773Z" fill="url(#paint13_linear_260_2210)"/>
<defs>
<linearGradient id="paint0_linear_260_2210" x1="59.8974" y1="146.841" x2="84.1809" y2="147.321" gradientUnits="userSpaceOnUse">
<stop stop-color="#6A0019"/>
<stop offset="1" stop-color="#908587"/>
</linearGradient>
<linearGradient id="paint1_linear_260_2210" x1="90.0165" y1="146.841" x2="114.3" y2="147.321" gradientUnits="userSpaceOnUse">
<stop stop-color="#6A0019"/>
<stop offset="1" stop-color="#908587"/>
</linearGradient>
<linearGradient id="paint2_linear_260_2210" x1="120.135" y1="146.841" x2="144.418" y2="147.321" gradientUnits="userSpaceOnUse">
<stop stop-color="#6A0019"/>
<stop offset="1" stop-color="#908587"/>
</linearGradient>
<linearGradient id="paint3_linear_260_2210" x1="150.255" y1="146.841" x2="174.538" y2="147.321" gradientUnits="userSpaceOnUse">
<stop stop-color="#6A0019"/>
<stop offset="1" stop-color="#908587"/>
</linearGradient>
<linearGradient id="paint4_linear_260_2210" x1="180.375" y1="146.841" x2="204.658" y2="147.321" gradientUnits="userSpaceOnUse">
<stop stop-color="#6A0019"/>
<stop offset="1" stop-color="#908587"/>
</linearGradient>
<linearGradient id="paint5_linear_260_2210" x1="83.372" y1="0" x2="83.372" y2="6.90187" gradientUnits="userSpaceOnUse">
<stop stop-color="#7F7F7F"/>
<stop offset="1" stop-color="#3B3B3B"/>
</linearGradient>
<linearGradient id="paint6_linear_260_2210" x1="110.003" y1="20.6489" x2="110.003" y2="126.944" gradientUnits="userSpaceOnUse">
<stop stop-color="#999999"/>
<stop offset="1" stop-color="white"/>
</linearGradient>
<linearGradient id="paint7_linear_260_2210" x1="78.3011" y1="0" x2="78.3011" y2="6.90187" gradientUnits="userSpaceOnUse">
<stop stop-color="#D7C1AC"/>
<stop offset="1" stop-color="#D7D0CA"/>
</linearGradient>
<linearGradient id="paint8_linear_260_2210" x1="78.3011" y1="0" x2="78.3011" y2="6.90187" gradientUnits="userSpaceOnUse">
<stop stop-color="#D7C1AC"/>
<stop offset="1" stop-color="#D7D0CA"/>
</linearGradient>
<linearGradient id="paint9_linear_260_2210" x1="78.3096" y1="59.8473" x2="0.00294323" y2="59.8473" gradientUnits="userSpaceOnUse">
<stop stop-color="#FF344D"/>
<stop offset="1" stop-color="#FF9A61"/>
</linearGradient>
<linearGradient id="paint10_linear_260_2210" x1="68.5137" y1="126.944" x2="9.79774" y2="126.944" gradientUnits="userSpaceOnUse">
<stop stop-color="#FF344D"/>
<stop offset="1" stop-color="#FF9A61"/>
</linearGradient>
<linearGradient id="paint11_linear_260_2210" x1="151.491" y1="126.944" x2="210.207" y2="126.944" gradientUnits="userSpaceOnUse">
<stop stop-color="#FF344D"/>
<stop offset="1" stop-color="#FF9A61"/>
</linearGradient>
<linearGradient id="paint12_linear_260_2210" x1="141.696" y1="59.8473" x2="220.003" y2="59.8473" gradientUnits="userSpaceOnUse">
<stop stop-color="#FF344D"/>
<stop offset="1" stop-color="#FF9A61"/>
</linearGradient>
<linearGradient id="paint13_linear_260_2210" x1="110.155" y1="20.6489" x2="110.155" y2="53.0576" gradientUnits="userSpaceOnUse">
<stop stop-color="#FF725E"/>
<stop offset="1" stop-color="#FFA184"/>
</linearGradient>
</defs>
</svg>
