<svg width="194" height="200" viewBox="0 0 194 200" fill="none" xmlns="http://www.w3.org/2000/svg">
<path d="M80.0559 160.474L100.274 81.0592L120.492 160.474H80.0559Z" stroke="url(#paint0_linear_79_8339)" stroke-width="9.02581"/>
<path d="M109.93 13.8145L89.9766 127.09" stroke="url(#paint1_linear_79_8339)" stroke-width="2.20636"/>
<path d="M156.591 80.4287L43.3158 60.4751" stroke="url(#paint2_linear_79_8339)" stroke-width="2.20636"/>
<path d="M87.3354 14.3438L112.572 126.56" stroke="url(#paint3_linear_79_8339)" stroke-width="2.20636"/>
<path d="M156.062 57.834L43.8453 83.0707" stroke="url(#paint4_linear_79_8339)" stroke-width="2.20636"/>
<path d="M129.687 21.2256L70.2193 119.679" stroke="url(#paint5_linear_79_8339)" stroke-width="2.20636"/>
<path d="M149.18 100.186L50.7267 40.7183" stroke="url(#paint6_linear_79_8339)" stroke-width="2.20636"/>
<path d="M66.959 23.3481L132.948 117.555" stroke="url(#paint7_linear_79_8339)" stroke-width="2.20636"/>
<path d="M147.057 37.458L52.8499 103.447" stroke="url(#paint8_linear_79_8339)" stroke-width="2.20636"/>
<circle cx="100.239" cy="68.8304" r="56.5823" transform="rotate(9.99022 100.239 68.8304)" stroke="url(#paint9_linear_79_8339)" stroke-width="5.14817"/>
<circle cx="99.953" cy="70.4519" r="8.25912" transform="rotate(9.99022 99.953 70.4519)" fill="#FF9AB8"/>
<path d="M113.221 21.0137L87.2569 21.0137L87.2569 13.7403C87.2569 6.57058 93.0691 0.758377 100.239 0.758378C107.409 0.758378 113.221 6.57059 113.221 13.7403L113.221 21.0137Z" fill="url(#paint10_linear_79_8339)"/>
<path d="M106.73 14.7388L93.748 14.7388L93.748 11.1019C93.748 7.51692 96.6542 4.6107 100.239 4.6107C103.824 4.6107 106.73 7.51692 106.73 11.1019L106.73 14.7388Z" fill="white"/>
<path d="M159.876 38.5171L133.913 38.5171L133.913 31.2437C133.913 24.074 139.725 18.2618 146.895 18.2618C154.064 18.2618 159.876 24.074 159.876 31.2437L159.876 38.5171Z" fill="url(#paint11_linear_79_8339)"/>
<path d="M153.064 32.3892L140.082 32.3892L140.082 28.7523C140.082 25.1673 142.988 22.2611 146.573 22.2611C150.158 22.2611 153.064 25.1673 153.064 28.7523L153.064 32.3892Z" fill="white"/>
<path d="M67.2061 38.5171L41.2422 38.5171L41.2422 31.2437C41.2422 24.074 47.0544 18.2618 54.2241 18.2618C61.3939 18.2618 67.2061 24.074 67.2061 31.2437L67.2061 38.5171Z" fill="url(#paint12_linear_79_8339)"/>
<path d="M60.397 32.3892L47.4145 32.3892L47.4145 28.7523C47.4145 25.1673 50.3207 22.2611 53.9057 22.2611C57.4908 22.2611 60.397 25.1673 60.397 28.7523L60.397 32.3892Z" fill="white"/>
<path d="M67.2061 124.426L41.2422 124.426L41.2422 117.152C41.2422 109.983 47.0544 104.17 54.2241 104.17C61.3939 104.17 67.2061 109.983 67.2061 117.152L67.2061 124.426Z" fill="url(#paint13_linear_79_8339)"/>
<path d="M60.397 118.437L47.4145 118.437L47.4145 114.8C47.4145 111.215 50.3207 108.309 53.9057 108.309C57.4908 108.309 60.397 111.215 60.397 114.8L60.397 118.437Z" fill="white"/>
<path d="M159.876 124.426L133.913 124.426L133.913 117.152C133.913 109.983 139.725 104.17 146.895 104.17C154.064 104.17 159.876 109.983 159.876 117.152L159.876 124.426Z" fill="url(#paint14_linear_79_8339)"/>
<path d="M153.064 118.437L140.082 118.437L140.082 114.8C140.082 111.215 142.988 108.309 146.573 108.309C150.158 108.309 153.064 111.215 153.064 114.8L153.064 118.437Z" fill="white"/>
<path d="M113.221 141.11L87.2573 141.11L87.2573 133.836C87.2573 126.667 93.0695 120.855 100.239 120.855C107.409 120.855 113.221 126.667 113.221 133.836L113.221 141.11Z" fill="url(#paint15_linear_79_8339)"/>
<path d="M106.73 134.617L93.748 134.617L93.748 130.98C93.748 127.395 96.6542 124.489 100.239 124.489C103.824 124.489 106.73 127.395 106.73 130.98L106.73 134.617Z" fill="white"/>
<path d="M175.389 85.3853L149.425 85.3853L149.425 78.1119C149.425 70.9422 155.237 65.13 162.407 65.13C169.576 65.13 175.389 70.9422 175.389 78.1119L175.389 85.3853Z" fill="url(#paint16_linear_79_8339)"/>
<path d="M169.244 79.4585L156.261 79.4585L156.261 75.8217C156.261 72.2366 159.167 69.3304 162.752 69.3304C166.337 69.3304 169.244 72.2367 169.244 75.8217L169.244 79.4585Z" fill="white"/>
<path d="M25.1592 85.3853H51.123V78.1119C51.123 70.9422 45.3108 65.13 38.1411 65.13C30.9714 65.13 25.1592 70.9422 25.1592 78.1119V85.3853Z" fill="url(#paint17_linear_79_8339)"/>
<path d="M44.9526 79.4585L31.9702 79.4585L31.9702 75.8217C31.9702 72.2366 34.8764 69.3304 38.4614 69.3304C42.0464 69.3304 44.9526 72.2367 44.9526 75.8217L44.9526 79.4585Z" fill="white"/>
<path fill-rule="evenodd" clip-rule="evenodd" d="M189.205 53.8124C189.533 53.3682 189.439 52.7421 188.995 52.4139C188.55 52.0857 187.924 52.1797 187.596 52.6239L185.609 55.3132L182.92 53.3261C182.476 52.9979 181.849 53.0919 181.521 53.5361C181.193 53.9803 181.287 54.6064 181.731 54.9346L184.421 56.9217L182.433 59.611C182.105 60.0552 182.199 60.6813 182.643 61.0095C183.088 61.3377 183.714 61.2437 184.042 60.7995L186.029 58.1102L188.718 60.0973C189.163 60.4255 189.789 60.3315 190.117 59.8873C190.445 59.4431 190.351 58.8169 189.907 58.4887L187.218 56.5017L189.205 53.8124Z" fill="#FFF171"/>
<path fill-rule="evenodd" clip-rule="evenodd" d="M189.205 53.8124C189.533 53.3682 189.439 52.7421 188.995 52.4139C188.55 52.0857 187.924 52.1797 187.596 52.6239L185.609 55.3132L182.92 53.3261C182.476 52.9979 181.849 53.0919 181.521 53.5361C181.193 53.9803 181.287 54.6064 181.731 54.9346L184.421 56.9217L182.433 59.611C182.105 60.0552 182.199 60.6813 182.643 61.0095C183.088 61.3377 183.714 61.2437 184.042 60.7995L186.029 58.1102L188.718 60.0973C189.163 60.4255 189.789 60.3315 190.117 59.8873C190.445 59.4431 190.351 58.8169 189.907 58.4887L187.218 56.5017L189.205 53.8124Z" fill="#FFF171"/>
<path fill-rule="evenodd" clip-rule="evenodd" d="M164.597 103.211C164.925 102.766 164.831 102.14 164.387 101.812C163.943 101.484 163.316 101.578 162.988 102.022L162.542 102.626L161.939 102.18C161.495 101.852 160.869 101.946 160.54 102.39C160.212 102.834 160.306 103.46 160.75 103.788L161.354 104.234L160.908 104.838C160.58 105.282 160.674 105.908 161.118 106.236C161.562 106.564 162.188 106.47 162.517 106.026L162.962 105.423L163.566 105.868C164.01 106.197 164.636 106.103 164.964 105.658C165.293 105.214 165.198 104.588 164.754 104.26L164.151 103.814L164.597 103.211Z" fill="#FFF171"/>
<path fill-rule="evenodd" clip-rule="evenodd" d="M164.597 103.211C164.925 102.766 164.831 102.14 164.387 101.812C163.943 101.484 163.316 101.578 162.988 102.022L162.542 102.626L161.939 102.18C161.495 101.852 160.869 101.946 160.54 102.39C160.212 102.834 160.306 103.46 160.75 103.788L161.354 104.234L160.908 104.838C160.58 105.282 160.674 105.908 161.118 106.236C161.562 106.564 162.188 106.47 162.517 106.026L162.962 105.423L163.566 105.868C164.01 106.197 164.636 106.103 164.964 105.658C165.293 105.214 165.198 104.588 164.754 104.26L164.151 103.814L164.597 103.211Z" fill="#BBFFF7"/>
<path fill-rule="evenodd" clip-rule="evenodd" d="M6.39758 111.342C6.72578 110.897 6.63176 110.271 6.18757 109.943C5.74338 109.615 5.11724 109.709 4.78904 110.153L4.34315 110.756L3.73972 110.311C3.29553 109.982 2.66939 110.076 2.34118 110.521C2.01298 110.965 2.10701 111.591 2.5512 111.919L3.15463 112.365L2.70882 112.968C2.38062 113.413 2.47465 114.039 2.91883 114.367C3.36302 114.695 3.98917 114.601 4.31737 114.157L4.76318 113.554L5.36657 113.999C5.81076 114.328 6.4369 114.234 6.7651 113.789C7.09331 113.345 6.99928 112.719 6.55509 112.391L5.9517 111.945L6.39758 111.342Z" fill="#FFF171"/>
<path fill-rule="evenodd" clip-rule="evenodd" d="M6.39758 111.342C6.72578 110.897 6.63176 110.271 6.18757 109.943C5.74338 109.615 5.11724 109.709 4.78904 110.153L4.34315 110.756L3.73972 110.311C3.29553 109.982 2.66939 110.076 2.34118 110.521C2.01298 110.965 2.10701 111.591 2.5512 111.919L3.15463 112.365L2.70882 112.968C2.38062 113.413 2.47465 114.039 2.91883 114.367C3.36302 114.695 3.98917 114.601 4.31737 114.157L4.76318 113.554L5.36657 113.999C5.81076 114.328 6.4369 114.234 6.7651 113.789C7.09331 113.345 6.99928 112.719 6.55509 112.391L5.9517 111.945L6.39758 111.342Z" fill="#BBFFF7"/>
<path fill-rule="evenodd" clip-rule="evenodd" d="M30.6861 18.9179C31.0143 18.4737 30.9202 17.8475 30.4761 17.5193C30.0319 17.1911 29.4057 17.2851 29.0775 17.7293L27.0905 20.4186L24.4012 18.4316C23.957 18.1034 23.3308 18.1974 23.0026 18.6416C22.6744 19.0858 22.7685 19.7119 23.2127 20.0401L25.902 22.0272L23.9149 24.7165C23.5867 25.1607 23.6807 25.7868 24.1249 26.115C24.5691 26.4432 25.1952 26.3492 25.5234 25.905L27.5105 23.2157L30.1998 25.2027C30.644 25.5309 31.2701 25.4369 31.5983 24.9927C31.9265 24.5485 31.8325 23.9224 31.3883 23.5942L28.699 21.6071L30.6861 18.9179Z" fill="#FFF171"/>
<path fill-rule="evenodd" clip-rule="evenodd" d="M30.6861 18.9179C31.0143 18.4737 30.9202 17.8475 30.4761 17.5193C30.0319 17.1911 29.4057 17.2851 29.0775 17.7293L27.0905 20.4186L24.4012 18.4316C23.957 18.1034 23.3308 18.1974 23.0026 18.6416C22.6744 19.0858 22.7685 19.7119 23.2127 20.0401L25.902 22.0272L23.9149 24.7165C23.5867 25.1607 23.6807 25.7868 24.1249 26.115C24.5691 26.4432 25.1952 26.3492 25.5234 25.905L27.5105 23.2157L30.1998 25.2027C30.644 25.5309 31.2701 25.4369 31.5983 24.9927C31.9265 24.5485 31.8325 23.9224 31.3883 23.5942L28.699 21.6071L30.6861 18.9179Z" fill="#FBC7FF"/>
<defs>
<linearGradient id="paint0_linear_79_8339" x1="100.274" y1="62.7676" x2="100.274" y2="199.061" gradientUnits="userSpaceOnUse">
<stop stop-color="#BE8F58"/>
<stop offset="1" stop-color="#FFC888"/>
</linearGradient>
<linearGradient id="paint1_linear_79_8339" x1="110.423" y1="13.9012" x2="90.469" y2="127.177" gradientUnits="userSpaceOnUse">
<stop stop-color="#C29868"/>
<stop offset="1" stop-color="#FFCE95"/>
</linearGradient>
<linearGradient id="paint2_linear_79_8339" x1="156.505" y1="80.9211" x2="43.229" y2="60.9675" gradientUnits="userSpaceOnUse">
<stop stop-color="#C29868"/>
<stop offset="1" stop-color="#FFCE95"/>
</linearGradient>
<linearGradient id="paint3_linear_79_8339" x1="87.8233" y1="14.234" x2="113.06" y2="126.451" gradientUnits="userSpaceOnUse">
<stop stop-color="#C29868"/>
<stop offset="1" stop-color="#FFCE95"/>
</linearGradient>
<linearGradient id="paint4_linear_79_8339" x1="156.172" y1="58.3218" x2="43.955" y2="83.5585" gradientUnits="userSpaceOnUse">
<stop stop-color="#C29868"/>
<stop offset="1" stop-color="#FFCE95"/>
</linearGradient>
<linearGradient id="paint5_linear_79_8339" x1="130.115" y1="21.4841" x2="70.6473" y2="119.938" gradientUnits="userSpaceOnUse">
<stop stop-color="#C29868"/>
<stop offset="1" stop-color="#FFCE95"/>
</linearGradient>
<linearGradient id="paint6_linear_79_8339" x1="148.922" y1="100.614" x2="50.4682" y2="41.1463" gradientUnits="userSpaceOnUse">
<stop stop-color="#C29868"/>
<stop offset="1" stop-color="#FFCE95"/>
</linearGradient>
<linearGradient id="paint7_linear_79_8339" x1="67.3685" y1="23.0613" x2="133.357" y2="117.268" gradientUnits="userSpaceOnUse">
<stop stop-color="#C29868"/>
<stop offset="1" stop-color="#FFCE95"/>
</linearGradient>
<linearGradient id="paint8_linear_79_8339" x1="147.344" y1="37.8675" x2="53.1368" y2="103.856" gradientUnits="userSpaceOnUse">
<stop stop-color="#C29868"/>
<stop offset="1" stop-color="#FFCE95"/>
</linearGradient>
<linearGradient id="paint9_linear_79_8339" x1="100.239" y1="9.67408" x2="100.239" y2="127.987" gradientUnits="userSpaceOnUse">
<stop stop-color="#FFCEF1"/>
<stop offset="1" stop-color="#FFF59F"/>
</linearGradient>
<linearGradient id="paint10_linear_79_8339" x1="100.239" y1="21.0137" x2="100.239" y2="0.758378" gradientUnits="userSpaceOnUse">
<stop stop-color="#FF8CBC"/>
<stop offset="1" stop-color="#FFE0A4"/>
</linearGradient>
<linearGradient id="paint11_linear_79_8339" x1="146.895" y1="38.5171" x2="146.895" y2="18.2618" gradientUnits="userSpaceOnUse">
<stop stop-color="#FF8CBC"/>
<stop offset="1" stop-color="#FFE0A4"/>
</linearGradient>
<linearGradient id="paint12_linear_79_8339" x1="54.2241" y1="38.5171" x2="54.2241" y2="18.2618" gradientUnits="userSpaceOnUse">
<stop stop-color="#FF8CBC"/>
<stop offset="1" stop-color="#FFE0A4"/>
</linearGradient>
<linearGradient id="paint13_linear_79_8339" x1="54.2241" y1="124.426" x2="54.2241" y2="104.17" gradientUnits="userSpaceOnUse">
<stop stop-color="#FF8CBC"/>
<stop offset="1" stop-color="#FFE0A4"/>
</linearGradient>
<linearGradient id="paint14_linear_79_8339" x1="146.895" y1="124.426" x2="146.895" y2="104.17" gradientUnits="userSpaceOnUse">
<stop stop-color="#FF8CBC"/>
<stop offset="1" stop-color="#FFE0A4"/>
</linearGradient>
<linearGradient id="paint15_linear_79_8339" x1="100.239" y1="141.11" x2="100.239" y2="120.855" gradientUnits="userSpaceOnUse">
<stop stop-color="#FF8CBC"/>
<stop offset="1" stop-color="#FFE0A4"/>
</linearGradient>
<linearGradient id="paint16_linear_79_8339" x1="162.407" y1="85.3853" x2="162.407" y2="65.13" gradientUnits="userSpaceOnUse">
<stop stop-color="#FF8CBC"/>
<stop offset="1" stop-color="#FFE0A4"/>
</linearGradient>
<linearGradient id="paint17_linear_79_8339" x1="38.1411" y1="85.3853" x2="38.1411" y2="65.13" gradientUnits="userSpaceOnUse">
<stop stop-color="#FF8CBC"/>
<stop offset="1" stop-color="#FFE0A4"/>
</linearGradient>
</defs>
</svg>
